<svg width="240" height="73" viewBox="0 0 240 73" fill="none" xmlns="http://www.w3.org/2000/svg">
<mask id="path-1-outside-1_147_11028" maskUnits="userSpaceOnUse" x="0" y="0" width="240" height="73" fill="black">
<rect fill="white" width="240" height="73"/>
<path d="M1 29C1 13.536 13.536 1 29 1H212C227.464 1 240 13.536 240 29V45C240 60.464 227.464 73 212 73H29C13.536 73 1 60.464 1 45V29Z"/>
</mask>
<path d="M1 29C1 13.536 13.536 1 29 1H212C227.464 1 240 13.536 240 29V45C240 60.464 227.464 73 212 73H29C13.536 73 1 60.464 1 45V29Z" fill="url(#paint0_radial_147_11028)"/>
<path d="M0 29C0 12.9837 12.9837 0 29 0H211C227.016 0 240 12.9837 240 29C240 14.0883 227.464 2 212 2H29C14.0883 2 2 14.0883 2 29H0ZM240 73H1H240ZM29 73C12.9837 73 0 60.0163 0 44V29C0 12.9837 12.9837 0 29 0V2C14.0883 2 2 14.0883 2 29V45C2 60.464 14.0883 73 29 73ZM240 1V73V1Z" fill="url(#paint1_linear_147_11028)" mask="url(#path-1-outside-1_147_11028)"/>
<mask id="path-3-outside-2_147_11028" maskUnits="userSpaceOnUse" x="12" y="12" width="49" height="49" fill="black">
<rect fill="white" x="12" y="12" width="49" height="49"/>
<path d="M13 29C13 20.1634 20.1634 13 29 13H45C53.8366 13 61 20.1634 61 29V45C61 53.8366 53.8366 61 45 61H29C20.1634 61 13 53.8366 13 45V29Z"/>
</mask>
<path d="M13 29C13 20.1634 20.1634 13 29 13H45C53.8366 13 61 20.1634 61 29V45C61 53.8366 53.8366 61 45 61H29C20.1634 61 13 53.8366 13 45V29Z" fill="url(#paint2_radial_147_11028)"/>
<path d="M12 29C12 19.6112 19.6112 12 29 12H44C53.3888 12 61 19.6112 61 29C61 20.7157 53.8366 14 45 14H29C20.7157 14 14 20.7157 14 29H12ZM61 61H13H61ZM29 61C19.6112 61 12 53.3888 12 44V29C12 19.6112 19.6112 12 29 12V14C20.7157 14 14 20.7157 14 29V45C14 53.8366 20.7157 61 29 61ZM61 13V61V13Z" fill="url(#paint3_linear_147_11028)" mask="url(#path-3-outside-2_147_11028)"/>
<path d="M28.03 27.309C27.7961 27.5481 27.6607 27.9204 27.6607 28.4025V45.5984C27.6607 46.0805 27.7961 46.4528 28.03 46.6919L28.0878 46.7444L37.9573 37.1122V36.8848L28.0878 27.2526L28.03 27.309Z" fill="url(#paint4_linear_147_11028)"/>
<path d="M41.2437 40.3246L37.9576 37.1122V36.8848L41.2477 33.6725L41.3214 33.7143L45.2178 35.8788C46.3298 36.4931 46.3298 37.5039 45.2178 38.1221L41.3214 40.2828L41.2437 40.3246Z" fill="url(#paint5_linear_147_11028)"/>
<path d="M41.3219 40.2827L37.9581 36.9984L28.0308 46.6918C28.4001 47.0709 29.0024 47.1166 29.6873 46.7375L41.3219 40.2827Z" fill="url(#paint6_linear_147_11028)"/>
<path d="M41.3219 33.7139L29.6873 27.2591C29.0024 26.8839 28.4001 26.9296 28.0308 27.3087L37.9581 36.9982L41.3219 33.7139Z" fill="url(#paint7_linear_147_11028)"/>
<g opacity="0.3" filter="url(#filter0_f_147_11028)">
<path d="M28.2027 30.6424C27.9687 30.8815 27.8333 31.2538 27.8333 31.7358V48.9318C27.8333 49.4139 27.9687 49.7862 28.2027 50.0253L28.2604 50.0778L38.1299 40.4456V40.2182L28.2604 30.586L28.2027 30.6424Z" fill="url(#paint8_linear_147_11028)"/>
<path d="M41.4164 43.658L38.1302 40.4456V40.2182L41.4204 37.0058L41.4941 37.0476L45.3905 39.2122C46.5025 39.8265 46.5025 40.8373 45.3905 41.4555L41.4941 43.6162L41.4164 43.658Z" fill="url(#paint9_linear_147_11028)"/>
<path d="M41.4946 43.6161L38.1307 40.3318L28.2035 50.0252C28.5728 50.4043 29.1751 50.45 29.86 50.0709L41.4946 43.6161Z" fill="url(#paint10_linear_147_11028)"/>
<path d="M41.4946 37.0473L29.86 30.5925C29.1751 30.2173 28.5728 30.263 28.2035 30.642L38.1307 40.3315L41.4946 37.0473Z" fill="url(#paint11_linear_147_11028)"/>
</g>
<path d="M80.9259 23.311C80.9259 24.3764 80.5992 25.2297 79.9556 25.866C79.2156 26.6204 78.2518 27 77.0708 27C75.942 27 74.9782 26.614 74.1876 25.8533C73.3953 25.0813 73 24.134 73 23C73 21.866 73.3953 20.9187 74.1876 20.1531C74.9782 19.386 75.942 19 77.0708 19C77.6327 19 78.1685 19.1132 78.6798 19.3238C79.1895 19.5359 79.6044 19.823 79.905 20.177L79.2222 20.8501C78.6978 20.2456 77.9839 19.9474 77.0708 19.9474C76.2475 19.9474 75.5336 20.2281 74.9276 20.7943C74.3281 21.362 74.0275 22.0973 74.0275 23C74.0275 23.9027 74.3281 24.6443 74.9276 25.2121C75.5336 25.7719 76.2475 26.059 77.0708 26.059C77.9447 26.059 78.6798 25.7719 79.2597 25.2057C79.642 24.8309 79.8593 24.3142 79.9164 23.6539H77.0708V22.7321H80.8671C80.9129 22.9314 80.9259 23.1244 80.9259 23.311Z" fill="white" fill-opacity="0.4"/>
<path d="M86.9494 20.1152H83.3834V22.5394H86.5982V23.4613H83.3834V25.8855H86.9494V26.8249H82.3738V19.1758H86.9494V20.1152Z" fill="white" fill-opacity="0.4"/>
<path d="M91.1998 26.8249H90.1903V20.1152H88.003V19.1758H93.3887V20.1152H91.1998V26.8249Z" fill="white" fill-opacity="0.4"/>
<path d="M97.2854 26.8251V19.176H98.2933V26.8251H97.2854Z" fill="white" fill-opacity="0.4"/>
<path d="M102.761 26.8251H101.76V20.1154H99.5646V19.176H104.957V20.1154H102.761V26.8251Z" fill="white" fill-opacity="0.4"/>
<path d="M115.153 25.8405C114.381 26.614 113.424 27 112.282 27C111.133 27 110.176 26.614 109.403 25.8405C108.632 25.0686 108.248 24.1212 108.248 23C108.248 21.8788 108.632 20.9314 109.403 20.1595C110.176 19.386 111.133 19 112.282 19C113.417 19 114.374 19.386 115.147 20.1659C115.925 20.9442 116.308 21.8852 116.308 23C116.308 24.1212 115.925 25.0686 115.153 25.8405ZM110.15 25.1994C110.731 25.7719 111.439 26.059 112.282 26.059C113.118 26.059 113.832 25.7719 114.407 25.1994C114.987 24.6268 115.281 23.8915 115.281 23C115.281 22.1085 114.987 21.3732 114.407 20.8006C113.832 20.2281 113.118 19.941 112.282 19.941C111.439 19.941 110.731 20.2281 110.15 20.8006C109.57 21.3732 109.276 22.1085 109.276 23C109.276 23.8915 109.57 24.6268 110.15 25.1994Z" fill="white" fill-opacity="0.4"/>
<path d="M117.725 26.8251V19.176H118.95L122.759 25.125H122.803L122.759 23.6545V19.176H123.767V26.8251H122.715L118.726 20.5827H118.682L118.726 22.0596V26.8251H117.725Z" fill="white" fill-opacity="0.4"/>
<path d="M105.589 40.5266C102.764 40.5266 100.456 42.6257 100.456 45.5218C100.456 48.3945 102.764 50.5156 105.589 50.5156C108.42 50.5156 110.728 48.3945 110.728 45.5218C110.728 42.6257 108.42 40.5266 105.589 40.5266ZM105.589 48.5486C104.039 48.5486 102.705 47.2995 102.705 45.5218C102.705 43.7207 104.039 42.4936 105.589 42.4936C107.139 42.4936 108.479 43.7207 108.479 45.5218C108.479 47.2995 107.139 48.5486 105.589 48.5486ZM94.3897 40.5266C91.5587 40.5266 89.2569 42.6257 89.2569 45.5218C89.2569 48.3945 91.5587 50.5156 94.3897 50.5156C97.2192 50.5156 99.5225 48.3945 99.5225 45.5218C99.5225 42.6257 97.2192 40.5266 94.3897 40.5266ZM94.3897 48.5486C92.8381 48.5486 91.5001 47.2995 91.5001 45.5218C91.5001 43.7207 92.8381 42.4936 94.3897 42.4936C95.9398 42.4936 97.2733 43.7207 97.2733 45.5218C97.2733 47.2995 95.9398 48.5486 94.3897 48.5486ZM81.063 42.0576V44.1802H86.2545C86.1026 45.3662 85.6967 46.2382 85.0743 46.8459C84.3165 47.5798 83.1363 48.3945 81.063 48.3945C77.8682 48.3945 75.3664 45.8771 75.3664 42.7578C75.3664 39.6385 77.8682 37.1211 81.063 37.1211C82.7905 37.1211 84.0474 37.7802 84.975 38.6345L86.5071 37.1387C85.2096 35.9292 83.4836 35 81.063 35C76.682 35 73 38.4804 73 42.7578C73 47.0352 76.682 50.5156 81.063 50.5156C83.431 50.5156 85.2096 49.7582 86.6078 48.3372C88.0406 46.9383 88.4871 44.9714 88.4871 43.3831C88.4871 42.8899 88.445 42.4363 88.3699 42.0576H81.063ZM135.557 43.7031C135.135 42.5861 133.831 40.5266 131.176 40.5266C128.545 40.5266 126.355 42.5508 126.355 45.5218C126.355 48.3196 128.523 50.5156 131.429 50.5156C133.779 50.5156 135.135 49.1167 135.693 48.302L133.949 47.1673C133.367 47.9982 132.575 48.5486 131.429 48.5486C130.291 48.5486 129.474 48.0393 128.951 47.0352L135.793 44.2712L135.557 43.7031ZM128.581 45.3662C128.523 43.4404 130.113 42.4539 131.253 42.4539C132.146 42.4539 132.904 42.8899 133.156 43.5138L128.581 45.3662ZM123.02 50.2117H125.269V35.5328H123.02V50.2117ZM119.337 41.6393H119.261C118.756 41.055 117.793 40.5266 116.572 40.5266C114.01 40.5266 111.667 42.7226 111.667 45.538C111.667 48.3372 114.01 50.5156 116.572 50.5156C117.793 50.5156 118.756 49.9828 119.261 49.3809H119.337V50.0972C119.337 52.007 118.292 53.033 116.606 53.033C115.232 53.033 114.38 52.0642 114.028 51.2495L112.072 52.0466C112.636 53.3706 114.129 55 116.606 55C119.243 55 121.468 53.4851 121.468 49.7993V40.8305H119.337V41.6393ZM116.764 48.5486C115.214 48.5486 113.917 47.2818 113.917 45.538C113.917 43.778 115.214 42.4936 116.764 42.4936C118.292 42.4936 119.496 43.778 119.496 45.538C119.496 47.2818 118.292 48.5486 116.764 48.5486ZM146.088 35.5328H140.708V50.2117H142.951V44.6499H146.088C148.579 44.6499 151.022 42.8899 151.022 40.0906C151.022 37.2928 148.573 35.5328 146.088 35.5328ZM146.146 42.6081H142.951V37.5747H146.146C147.821 37.5747 148.777 38.9325 148.777 40.0906C148.777 41.2268 147.821 42.6081 146.146 42.6081ZM160.013 40.4987C158.392 40.4987 156.707 41.1974 156.013 42.7461L158.004 43.5607C158.433 42.7461 159.22 42.4818 160.053 42.4818C161.217 42.4818 162.397 43.1644 162.415 44.3695V44.5237C162.009 44.2947 161.14 43.9556 160.071 43.9556C157.927 43.9556 155.743 45.1079 155.743 47.2584C155.743 49.2253 157.499 50.4921 159.473 50.4921C160.982 50.4921 161.815 49.8272 162.339 49.0536H162.415V50.1883H164.582V44.5574C164.582 41.9549 162.591 40.4987 160.013 40.4987ZM159.742 48.5428C159.008 48.5428 157.986 48.1875 157.986 47.2995C157.986 46.1633 159.261 45.7273 160.364 45.7273C161.352 45.7273 161.815 45.9402 162.415 46.2206C162.239 47.5798 161.041 48.5428 159.742 48.5428ZM172.475 40.8202L169.896 47.1835H169.82L167.154 40.8202H164.735L168.74 49.7127L166.455 54.6609H168.799L174.971 40.8202H172.475ZM152.255 50.2117H154.504V35.5328H152.255V50.2117Z" fill="white"/>
<defs>
<filter id="filter0_f_147_11028" x="19.8333" y="22.3333" width="34.3911" height="36.0001" filterUnits="userSpaceOnUse" color-interpolation-filters="sRGB">
<feFlood flood-opacity="0" result="BackgroundImageFix"/>
<feBlend mode="normal" in="SourceGraphic" in2="BackgroundImageFix" result="shape"/>
<feGaussianBlur stdDeviation="4" result="effect1_foregroundBlur_147_11028"/>
</filter>
<radialGradient id="paint0_radial_147_11028" cx="0" cy="0" r="1" gradientUnits="userSpaceOnUse" gradientTransform="translate(49.5009 10.7008) scale(196.299 91.1557)">
<stop stop-color="#1D1A24"/>
<stop offset="0.5" stop-color="#1C1925" stop-opacity="0.83"/>
<stop offset="0.996483" stop-color="#1C1925" stop-opacity="0.46"/>
</radialGradient>
<linearGradient id="paint1_linear_147_11028" x1="-29.1348" y1="42.9211" x2="20.9251" y2="-47.6222" gradientUnits="userSpaceOnUse">
<stop offset="0.0254865" stop-color="#2D2939"/>
<stop offset="0.514554" stop-color="#322D40"/>
<stop offset="1" stop-color="#2D2939"/>
</linearGradient>
<radialGradient id="paint2_radial_147_11028" cx="0" cy="0" r="1" gradientUnits="userSpaceOnUse" gradientTransform="translate(20.1111 16.5556) rotate(50.3073) scale(57.759 45.0709)">
<stop stop-color="#262231"/>
<stop offset="1" stop-color="#262231" stop-opacity="0"/>
</radialGradient>
<linearGradient id="paint3_linear_147_11028" x1="6.94783" y1="40.9474" x2="40.0608" y2="22.9048" gradientUnits="userSpaceOnUse">
<stop offset="0.0254865" stop-color="#2D2939"/>
<stop offset="0.514554" stop-color="#322D40"/>
<stop offset="1" stop-color="#2D2939"/>
</linearGradient>
<linearGradient id="paint4_linear_147_11028" x1="37.081" y1="45.7775" x2="24.0352" y2="32.4157" gradientUnits="userSpaceOnUse">
<stop stop-color="#00A0FF"/>
<stop offset="0.0066" stop-color="#00A1FF"/>
<stop offset="0.2601" stop-color="#00BEFF"/>
<stop offset="0.5122" stop-color="#00D2FF"/>
<stop offset="0.7604" stop-color="#00DFFF"/>
<stop offset="1" stop-color="#00E3FF"/>
</linearGradient>
<linearGradient id="paint5_linear_147_11028" x1="46.6658" y1="36.9974" x2="27.3951" y2="36.9974" gradientUnits="userSpaceOnUse">
<stop stop-color="#FFE000"/>
<stop offset="0.4087" stop-color="#FFBD00"/>
<stop offset="0.7754" stop-color="#FFA500"/>
<stop offset="1" stop-color="#FF9C00"/>
</linearGradient>
<linearGradient id="paint6_linear_147_11028" x1="39.4927" y1="35.2131" x2="21.8016" y2="17.0933" gradientUnits="userSpaceOnUse">
<stop stop-color="#FF3A44"/>
<stop offset="1" stop-color="#C31162"/>
</linearGradient>
<linearGradient id="paint7_linear_147_11028" x1="25.5319" y1="52.4126" x2="33.4318" y2="44.3213" gradientUnits="userSpaceOnUse">
<stop stop-color="#32A071"/>
<stop offset="0.0685" stop-color="#2DA771"/>
<stop offset="0.4762" stop-color="#15CF74"/>
<stop offset="0.8009" stop-color="#06E775"/>
<stop offset="1" stop-color="#00F076"/>
</linearGradient>
<linearGradient id="paint8_linear_147_11028" x1="37.2537" y1="49.1109" x2="24.2079" y2="35.749" gradientUnits="userSpaceOnUse">
<stop stop-color="#00A0FF"/>
<stop offset="0.0066" stop-color="#00A1FF"/>
<stop offset="0.2601" stop-color="#00BEFF"/>
<stop offset="0.5122" stop-color="#00D2FF"/>
<stop offset="0.7604" stop-color="#00DFFF"/>
<stop offset="1" stop-color="#00E3FF"/>
</linearGradient>
<linearGradient id="paint9_linear_147_11028" x1="46.8385" y1="40.3308" x2="27.5678" y2="40.3308" gradientUnits="userSpaceOnUse">
<stop stop-color="#FFE000"/>
<stop offset="0.4087" stop-color="#FFBD00"/>
<stop offset="0.7754" stop-color="#FFA500"/>
<stop offset="1" stop-color="#FF9C00"/>
</linearGradient>
<linearGradient id="paint10_linear_147_11028" x1="39.6654" y1="38.5464" x2="21.9743" y2="20.4267" gradientUnits="userSpaceOnUse">
<stop stop-color="#FF3A44"/>
<stop offset="1" stop-color="#C31162"/>
</linearGradient>
<linearGradient id="paint11_linear_147_11028" x1="25.7046" y1="55.7459" x2="33.6044" y2="47.6547" gradientUnits="userSpaceOnUse">
<stop stop-color="#32A071"/>
<stop offset="0.0685" stop-color="#2DA771"/>
<stop offset="0.4762" stop-color="#15CF74"/>
<stop offset="0.8009" stop-color="#06E775"/>
<stop offset="1" stop-color="#00F076"/>
</linearGradient>
</defs>
</svg>
