<svg width="28" height="28" viewBox="0 0 28 28" fill="none" xmlns="http://www.w3.org/2000/svg">
<g id="icons">
<path id="Star" d="M21.9831 12.938C23.0056 13.2768 23.0056 14.7232 21.9831 15.062L17.318 16.6079C16.9824 16.7191 16.7191 16.9824 16.6079 17.318L15.062 21.9831C14.7232 23.0056 13.2768 23.0056 12.938 21.9831L11.3921 17.318C11.2809 16.9824 11.0176 16.7191 10.682 16.6079L6.01686 15.062C4.99438 14.7232 4.99438 13.2768 6.01686 12.938L10.682 11.3921C11.0176 11.2809 11.2809 11.0176 11.3921 10.682L12.938 6.01686C13.2768 4.99438 14.7232 4.99438 15.062 6.01686L16.6079 10.682C16.7191 11.0176 16.9824 11.2809 17.318 11.3921L21.9831 12.938Z" fill="url(#paint0_linear_221_10124)"/>
<path id="Vector" opacity="0.2" d="M20.2415 6.39379C20.3824 6.0354 20.8877 6.0354 21.0285 6.39379L21.1658 6.74322C21.2088 6.85264 21.2951 6.93925 21.4041 6.9824L21.7523 7.12021C22.1094 7.26156 22.1094 7.76877 21.7523 7.91011L21.4041 8.04793C21.2951 8.09108 21.2088 8.17769 21.1658 8.28711L21.0285 8.63654C20.8877 8.99492 20.3824 8.99492 20.2415 8.63654L20.1042 8.28711C20.0612 8.17769 19.975 8.09108 19.8659 8.04793L19.5178 7.91011C19.1607 7.76877 19.1607 7.26156 19.5178 7.12021L19.8659 6.9824C19.975 6.93925 20.0612 6.85264 20.1042 6.74322L20.2415 6.39379Z" fill="url(#paint1_linear_221_10124)"/>
<path id="Vector_2" opacity="0.7" d="M7.08753 18.6438C7.22835 18.2854 7.73369 18.2854 7.87452 18.6438L8.2511 19.6022C8.2941 19.7116 8.38039 19.7982 8.4894 19.8413L9.44425 20.2193C9.80131 20.3607 9.80131 20.8679 9.44425 21.0092L8.4894 21.3872C8.38039 21.4304 8.2941 21.517 8.2511 21.6264L7.87452 22.5848C7.73369 22.9431 7.22835 22.9431 7.08753 22.5848L6.71095 21.6264C6.66795 21.517 6.58166 21.4304 6.47264 21.3872L5.5178 21.0092C5.16073 20.8679 5.16073 20.3607 5.5178 20.2193L6.47264 19.8413C6.58166 19.7982 6.66795 19.7116 6.71095 19.6022L7.08753 18.6438Z" fill="url(#paint2_linear_221_10124)"/>
</g>
<defs>
<linearGradient id="paint0_linear_221_10124" x1="3.0625" y1="4.54054" x2="5.09777" y2="25.0317" gradientUnits="userSpaceOnUse">
<stop stop-color="#A917DC"/>
<stop offset="1" stop-color="#CA40FB"/>
</linearGradient>
<linearGradient id="paint1_linear_221_10124" x1="19.1377" y1="9.25287" x2="22.3815" y2="8.93187" gradientUnits="userSpaceOnUse">
<stop stop-color="#A917DC"/>
<stop offset="1" stop-color="#CA40FB"/>
</linearGradient>
<linearGradient id="paint2_linear_221_10124" x1="5.06911" y1="23.4134" x2="10.2942" y2="22.8963" gradientUnits="userSpaceOnUse">
<stop stop-color="#A917DC"/>
<stop offset="1" stop-color="#CA40FB"/>
</linearGradient>
</defs>
</svg>
