<svg width="57" height="56" viewBox="0 0 57 56" fill="none" xmlns="http://www.w3.org/2000/svg">
<path d="M30.2903 36.6028C29.0088 35.6611 28.4018 34.2821 28.4018 32.1632C28.4018 29.5062 29.2112 26.2774 30.5601 24.8648C31.5043 23.9231 32.8532 23.4859 34.6742 23.4859C37.2709 23.4859 40.4745 24.1585 41.7897 25.5375C42.7002 26.4456 43.1049 27.69 43.1049 29.4389C43.1049 31.9614 42.3967 35.4929 40.8117 36.9728C39.9012 37.78 38.7209 38.15 37.0011 38.15C34.6742 38.1163 31.7404 37.5782 30.2903 36.6028ZM41.7222 42.1523L41.4187 44.5739L48.197 45.4148L51.4006 19.2817L44.6224 18.4409L44.3189 20.9634H43.5095C42.4978 19.1808 39.8 16.7592 34.6742 16.7592C27.5588 16.7592 22.298 22.006 21.3538 29.1699C21.2526 29.8762 21.2189 30.5825 21.2189 31.2888C21.2189 38.15 25.8726 43.7667 33.1567 44.5739C33.5614 44.6076 33.966 44.6412 34.3707 44.6076C37.4057 44.6076 39.6989 43.2959 40.8792 42.1523H41.7222ZM11.1696 5.12207L6.75195 40.3361L13.9349 41.2106L18.2851 5.99654L11.1696 5.12207Z" fill="white"/>
</svg>
