<svg width="59" height="55" viewBox="0 0 59 55" fill="none" xmlns="http://www.w3.org/2000/svg">
<circle cx="29.8071" cy="27.7368" r="26.8735" fill="#085FFF"/>
<path fill-rule="evenodd" clip-rule="evenodd" d="M26.2461 54.376L29.2302 27.9013C28.7356 27.022 28.241 24.9502 30.2194 23.6972C32.1979 22.4442 35.3853 21.8561 36.7317 21.7188L39.2048 22.3782L40.3588 24.5215L54.0043 39.4415C49.6534 48.4193 40.4532 54.6099 29.8071 54.6099C28.5999 54.6099 27.4112 54.5303 26.2461 54.376Z" fill="#F8185A"/>
<g clip-path="url(#clip0_1284_252024)">
<path fill-rule="evenodd" clip-rule="evenodd" d="M7.13348 27.6166C5.85769 27.8256 4.68034 28.4307 3.76324 29.3487C2.84614 30.2667 2.23432 31.4526 2.01188 32.7434C1.78944 34.0341 1.96729 35.3664 2.521 36.557C3.0747 37.7476 3.97707 38.7382 5.10408 39.3926C6.23108 40.0469 7.5274 40.3329 8.81484 40.2113C10.1023 40.0896 11.3177 39.5663 12.2939 38.7132C13.2701 37.8601 13.9593 36.7191 14.2667 35.4471C14.5742 34.1751 14.4847 32.8345 14.0107 31.6096C13.4851 30.2476 12.5143 29.1069 11.2617 28.3797C10.0091 27.6524 8.55121 27.3829 7.13348 27.6166ZM9.51309 37.0108C8.87166 37.2854 8.15982 37.3486 7.47761 37.1915C6.7954 37.0343 6.17712 36.6648 5.70967 36.1348C5.24221 35.6047 4.94908 34.9409 4.87148 34.2365C4.79387 33.5321 4.93569 32.8226 5.277 32.2077C5.61831 31.5928 6.14195 31.1034 6.77434 30.8083C7.40672 30.5131 8.11605 30.4272 8.80263 30.5624C9.48922 30.6976 10.1185 31.0473 10.6022 31.5622C11.0858 32.0771 11.3994 32.7314 11.4989 33.4331C11.6037 34.1712 11.466 34.9217 11.107 35.5684C10.7481 36.2152 10.1878 36.7221 9.51309 37.0108ZM15.7946 25.4898C15.5855 25.5479 15.3923 25.6528 15.2289 25.7966C15.0656 25.9404 14.9362 26.1196 14.8502 26.3212C14.7642 26.5228 14.7237 26.7416 14.7318 26.9618C14.7399 27.182 14.7962 27.398 14.8968 27.5941C15.2149 28.2316 15.9612 28.5213 16.636 28.3353L20.5514 27.2558L16.7175 37.1313C16.6891 37.2042 16.6814 37.2839 16.6952 37.3614C16.709 37.4388 16.7438 37.5111 16.7957 37.57C16.8475 37.6289 16.9144 37.6721 16.9888 37.6948C17.0633 37.7174 17.1423 37.7187 17.217 37.6984L26.7751 35.0633C27.4493 34.8774 27.9422 34.2462 27.8887 33.5357C27.8746 33.3158 27.8123 33.1014 27.7065 32.9082C27.6006 32.715 27.4538 32.5478 27.2767 32.4187C27.0996 32.2897 26.8967 32.202 26.6828 32.1622C26.4689 32.1223 26.2492 32.1312 26.0399 32.1883L21.2692 33.5035L25.1002 23.6357C25.1289 23.5621 25.1366 23.4816 25.1227 23.4034C25.1087 23.3252 25.0736 23.2522 25.0212 23.1928C24.9688 23.1334 24.9013 23.0898 24.8261 23.0669C24.7509 23.044 24.6711 23.0428 24.5957 23.0634L15.7946 25.4898ZM53.997 14.9931C53.7016 15.1568 53.4711 15.4183 53.3434 15.7343C53.2157 16.0504 53.1986 16.402 53.2949 16.7311L54.6077 21.4931L45.3228 17.4458C45.25 17.4142 45.1701 17.404 45.0922 17.4163C45.0143 17.4287 44.9416 17.4631 44.8825 17.5157C44.8234 17.5682 44.7802 17.6368 44.758 17.7134C44.7358 17.79 44.7354 17.8716 44.7569 17.9488L47.4676 27.7813C47.5536 28.1132 47.7485 28.4064 48.0201 28.6124C48.2917 28.8184 48.6237 28.9248 48.9612 28.914C49.1794 28.9033 49.392 28.843 49.5833 28.7377C49.7747 28.6323 49.9399 28.4846 50.0668 28.3053C50.1937 28.126 50.2791 27.9198 50.3166 27.7019C50.3542 27.4839 50.3429 27.2598 50.2836 27.046L48.9594 22.2428L58.2445 26.2902C58.3173 26.3218 58.3972 26.332 58.4751 26.3197C58.5529 26.3073 58.6256 26.2729 58.6847 26.2203C58.7438 26.1678 58.7869 26.0993 58.8091 26.0227C58.8313 25.9461 58.8317 25.8646 58.8102 25.7874L56.0896 15.9191C56.0309 15.7052 55.9257 15.507 55.7817 15.3392C55.6378 15.1713 55.4589 15.0381 55.258 14.9492C55.0572 14.8603 54.8397 14.8181 54.6214 14.8257C54.4032 14.8333 54.1898 14.8905 53.997 14.9931ZM34.9332 22.9963C38.1444 22.111 41.0194 23.1742 41.4447 24.717C41.87 26.2598 39.9461 28.6461 36.7349 29.5314C33.5236 30.4168 30.6487 29.3535 30.2233 27.8107C29.798 26.2679 31.7219 23.8816 34.9332 22.9963ZM34.1447 20.1363C29.4965 21.4178 26.4849 25.2 27.4179 28.5841C28.3509 31.9683 32.8752 33.6729 37.5233 32.3914C42.1715 31.11 45.183 27.3278 44.25 23.9436C43.317 20.5595 38.7927 18.8549 34.1447 20.1363Z" fill="white"/>
</g>
<defs>
<clipPath id="clip0_1284_252024">
<rect width="57.1779" height="12.7205" fill="white" transform="translate(0.498047 29.4102) rotate(-15.4132)"/>
</clipPath>
</defs>
</svg>
