<svg width="56" height="56" viewBox="0 0 56 56" fill="none" xmlns="http://www.w3.org/2000/svg">
<path d="M28.1006 55C42.7634 55 54.5996 43.1633 54.5996 28.5C54.5996 13.8367 42.7634 2 28.1006 2C13.4378 2 1.60153 13.8367 1.60153 28.5C1.42487 43.1633 13.4378 55 28.1006 55Z" fill="#FED02D"/>
<mask id="mask0_1284_252047" style="mask-type:luminance" maskUnits="userSpaceOnUse" x="1" y="2" width="54" height="53">
<path d="M28.1035 55C42.7668 55 54.6035 43.1633 54.6035 28.5C54.6035 13.8367 42.7668 2 28.1035 2C13.4402 2 1.60349 13.8367 1.60349 28.5C1.42682 43.1633 13.4402 55 28.1035 55Z" fill="white"/>
</mask>
<g mask="url(#mask0_1284_252047)">
<path d="M15.0078 16.4627L-8.27344 46.9753L-2.10038 54.0302L15.1842 31.1017L13.4205 43.6242L23.121 46.9753L34.938 28.1034C34.4089 31.6308 33.527 39.744 41.2874 42.2132C53.4572 45.9171 64.0396 24.0468 68.978 12.9353L61.9231 9.23145C56.4555 20.6957 47.9896 33.3946 44.6385 32.5127C41.2874 31.6308 44.2858 20.8721 46.2259 13.9935V13.8171L35.4671 10.1133L22.5919 31.1017L24.3556 19.6375L15.0078 16.4627Z" fill="#16131D"/>
</g>
</svg>
