<svg width="32" height="32" viewBox="0 0 32 32" fill="none" xmlns="http://www.w3.org/2000/svg">
<path d="M25.1236 14.7863C26.2921 15.1735 26.2921 16.8265 25.1236 17.2137L19.792 18.9805C19.4085 19.1076 19.1076 19.4085 18.9805 19.792L17.2137 25.1236C16.8265 26.2921 15.1735 26.2921 14.7863 25.1236L13.0195 19.792C12.8924 19.4085 12.5915 19.1076 12.208 18.9805L6.87641 17.2137C5.70786 16.8265 5.70786 15.1735 6.87641 14.7863L12.208 13.0195C12.5915 12.8924 12.8924 12.5915 13.0195 12.208L14.7863 6.87641C15.1735 5.70786 16.8265 5.70786 17.2137 6.87641L18.9805 12.208C19.1076 12.5915 19.4085 12.8924 19.792 13.0195L25.1236 14.7863Z" fill="white"/>
<path opacity="0.2" d="M23.1332 7.30719C23.2941 6.8976 23.8717 6.8976 24.0326 7.30719L24.1895 7.70654C24.2387 7.83158 24.3373 7.93057 24.4619 7.97989L24.8598 8.13739C25.2678 8.29893 25.2678 8.87859 24.8598 9.04013L24.4619 9.19763C24.3373 9.24695 24.2387 9.34593 24.1895 9.47098L24.0326 9.87033C23.8717 10.2799 23.2941 10.2799 23.1332 9.87033L22.9763 9.47098C22.9271 9.34593 22.8285 9.24695 22.7039 9.19763L22.3061 9.04013C21.898 8.87859 21.898 8.29893 22.3061 8.13739L22.7039 7.97989C22.8285 7.93057 22.9271 7.83158 22.9763 7.70654L23.1332 7.30719Z" fill="white"/>
<path opacity="0.7" d="M8.10003 21.3072C8.26098 20.8976 8.83851 20.8976 8.99945 21.3072L9.42983 22.4025C9.47897 22.5275 9.57759 22.6265 9.70218 22.6758L10.7934 23.1078C11.2015 23.2693 11.2015 23.849 10.7934 24.0105L9.70218 24.4425C9.57759 24.4918 9.47897 24.5908 9.42983 24.7159L8.99945 25.8112C8.83851 26.2207 8.26098 26.2207 8.10003 25.8112L7.66965 24.7159C7.62051 24.5908 7.52189 24.4918 7.39731 24.4425L6.30606 24.0105C5.89798 23.849 5.89798 23.2693 6.30606 23.1078L7.39731 22.6758C7.52189 22.6265 7.62051 22.5275 7.66965 22.4025L8.10003 21.3072Z" fill="white"/>
</svg>
