<svg width="18" height="18" viewBox="0 0 18 18" fill="none" xmlns="http://www.w3.org/2000/svg">
<g id="1949">
<path id="Star" d="M16.527 7.99869C17.491 8.31816 17.491 9.68184 16.527 10.0013L12.1284 11.4589C11.812 11.5638 11.5638 11.812 11.4589 12.1284L10.0013 16.527C9.68184 17.491 8.31816 17.491 7.99869 16.527L6.54108 12.1284C6.43623 11.812 6.188 11.5638 5.87159 11.4589L1.47304 10.0013C0.508987 9.68184 0.508985 8.31816 1.47304 7.99869L5.87159 6.54108C6.188 6.43623 6.43623 6.188 6.54108 5.87159L7.99869 1.47304C8.31816 0.508988 9.68184 0.508986 10.0013 1.47304L11.4589 5.87159C11.5638 6.188 11.812 6.43623 12.1284 6.54108L16.527 7.99869Z" fill="url(#paint0_linear_601_1817)"/>
</g>
<defs>
<linearGradient id="paint0_linear_601_1817" x1="-1.3125" y1="0.0810803" x2="0.606468" y2="19.4013" gradientUnits="userSpaceOnUse">
<stop stop-color="#A917DC"/>
<stop offset="1" stop-color="#CA40FB"/>
</linearGradient>
</defs>
</svg>
