<svg width="674" height="496" viewBox="0 0 674 496" fill="none" xmlns="http://www.w3.org/2000/svg" xmlns:xlink="http://www.w3.org/1999/xlink">
<g clip-path="url(#clip0_374_20286)">
<path d="M32 496C14.3269 496 3.19895e-05 481.673 2.99352e-05 464L-2.02821e-05 32C-2.23365e-05 14.3269 14.3269 -3.11438e-05 32 -3.19163e-05L642 -2.80627e-05C659.673 -2.88352e-05 674 14.3269 674 32L674 464C674 481.673 659.673 496 642 496L32 496Z" fill="url(#paint0_radial_374_20286)"/>
<path d="M32 496C14.3269 496 3.19895e-05 481.673 2.99352e-05 464L-2.02821e-05 32C-2.23365e-05 14.3269 14.3269 -3.11438e-05 32 -3.19163e-05L642 -2.80627e-05C659.673 -2.88352e-05 674 14.3269 674 32L674 464C674 481.673 659.673 496 642 496L32 496Z" fill="url(#pattern0)"/>
</g>
<g clip-path="url(#clip1_374_20286)">
<path d="M32 496C14.3269 496 3.19895e-05 481.673 2.99351e-05 464L-2.02821e-05 32C-2.23365e-05 14.3269 14.3269 -3.11438e-05 32 -3.19163e-05L642 -2.80627e-05C659.673 -2.88352e-05 674 14.3268 674 32L674 464C674 481.673 659.673 496 642 496L32 496Z" fill="url(#paint1_radial_374_20286)"/>
<path d="M32 496C14.3269 496 3.19895e-05 481.673 2.99351e-05 464L-2.02821e-05 32C-2.23365e-05 14.3269 14.3269 -3.11438e-05 32 -3.19163e-05L642 -2.80627e-05C659.673 -2.88352e-05 674 14.3268 674 32L674 464C674 481.673 659.673 496 642 496L32 496Z" fill="url(#pattern1)"/>
</g>
<defs>
<pattern id="pattern0" patternContentUnits="objectBoundingBox" width="1" height="1">
<use xlink:href="#image0_374_20286" transform="matrix(0 0.000812303 -0.00106145 0 1.09393 0.0489758)"/>
</pattern>
<pattern id="pattern1" patternContentUnits="objectBoundingBox" width="1" height="1">
<use xlink:href="#image1_374_20286" transform="matrix(0 0.000812303 -0.00106145 0 1.09393 0.0489758)"/>
</pattern>
<radialGradient id="paint0_radial_374_20286" cx="0" cy="0" r="1" gradientUnits="userSpaceOnUse" gradientTransform="translate(337 248) rotate(-0.892518) scale(449.388 331.292)">
<stop stop-color="#EE64E8"/>
<stop offset="1" stop-color="#890384"/>
</radialGradient>
<radialGradient id="paint1_radial_374_20286" cx="0" cy="0" r="1" gradientUnits="userSpaceOnUse" gradientTransform="translate(337 248) rotate(-0.892518) scale(449.388 331.292)">
<stop stop-color="#EE64E8"/>
<stop offset="1" stop-color="#890384"/>
</radialGradient>
<clipPath id="clip0_374_20286">
<rect width="336" height="496" fill="white"/>
</clipPath>
<clipPath id="clip1_374_20286">
<rect width="338" height="496" fill="white" transform="translate(336)"/>
</clipPath>
</defs>
</svg>