<svg width="16" height="16" viewBox="0 0 16 16" fill="none" xmlns="http://www.w3.org/2000/svg">
<path d="M15.2989 7.02903C16.2337 7.33882 16.2337 8.66118 15.2989 8.97097L11.0336 10.3844C10.7268 10.4861 10.4861 10.7268 10.3844 11.0336L8.97096 15.2989C8.66117 16.2337 7.33882 16.2337 7.02903 15.2989L5.61559 11.0336C5.51392 10.7268 5.27321 10.4861 4.96639 10.3844L0.701129 8.97097C-0.23371 8.66118 -0.233712 7.33882 0.701127 7.02903L4.96639 5.6156C5.27321 5.51392 5.51392 5.27321 5.61559 4.96639L7.02903 0.70113C7.33882 -0.233709 8.66118 -0.233711 8.97097 0.701128L10.3844 4.96639C10.4861 5.27321 10.7268 5.51392 11.0336 5.6156L15.2989 7.02903Z" fill="url(#paint0_linear_1104_23205)"/>
<defs>
<linearGradient id="paint0_linear_1104_23205" x1="-2" y1="-0.648649" x2="-0.139183" y2="18.0861" gradientUnits="userSpaceOnUse">
<stop stop-color="#A917DC"/>
<stop offset="1" stop-color="#CA40FB"/>
</linearGradient>
</defs>
</svg>
