<svg width="140" height="29" viewBox="0 0 140 29" fill="none" xmlns="http://www.w3.org/2000/svg">
<g clip-path="url(#clip0_1312_3292)">
<path d="M14.7074 0.230469H16.0292C17.6208 0.364544 19.3277 0.463334 20.6902 1.42301C21.4657 1.94871 21.861 3.02306 21.5301 3.9351C21.0941 5.19292 19.8181 6.24785 18.4861 5.99559C17.7344 5.77684 17.1066 5.26877 16.5111 4.766C15.5422 3.94216 14.6073 3.0407 13.4569 2.49029C12.5542 2.02457 11.4937 2.05103 10.5299 2.26802C8.8111 2.69493 7.45368 4.05153 6.58323 5.60043C5.50917 7.56212 4.95093 9.83077 5.00183 12.0871C4.99844 14.8126 5.73484 17.5664 7.22631 19.8209C8.73305 22.1002 11.0627 23.8167 13.6809 24.3794C15.5354 24.8187 17.5427 24.7146 19.2853 23.8908C20.0573 23.538 20.7785 23.074 21.464 22.5659C21.8288 22.7882 22.2004 22.9964 22.5889 23.1693C20.8463 25.2227 18.5879 26.8333 16.0546 27.6272C13.3958 28.4545 10.4536 28.4069 7.87108 27.3096C5.05273 26.1312 2.78246 23.7232 1.55057 20.8565C0.800599 19.1876 0.445971 17.3565 0.333984 15.5236V14.2922C0.449367 12.5863 0.785326 10.8857 1.45895 9.3192C2.63651 6.50367 4.72015 4.13798 7.24665 2.56267C9.48978 1.1355 12.0875 0.371598 14.7074 0.230469Z" fill="white"/>
<path d="M42.2962 0.230469H42.3115C42.527 0.308092 42.7374 0.391004 42.9512 0.470388C42.7883 1.94166 42.6576 3.41822 42.4879 4.88949C44.9245 3.04776 47.4849 1.17603 50.4797 0.496853C51.0516 0.357489 51.6352 0.297506 52.2172 0.230473H53.2777C54.3925 0.329264 55.5327 0.502146 56.5321 1.05608C57.7148 1.65587 58.6395 2.72845 59.1638 3.97215C59.9291 5.73097 60.058 7.69619 60.0716 9.59966C60.0716 13.4031 60.0733 17.2047 60.0716 21.0082C60.0648 21.802 60.0818 22.5994 60.1548 23.3897C60.2549 24.0354 60.3329 24.7304 60.7418 25.2562C61.1202 25.7677 61.709 26.05 62.2927 26.2158C63.0529 26.4293 63.8266 26.5934 64.6088 26.6763C64.6241 26.9815 64.6275 27.2866 64.6275 27.5918H51.0363C51.0447 27.2919 50.9972 26.9797 51.0736 26.6851C52.2393 26.4752 53.5051 26.3464 54.4926 25.6054C55.4275 24.8398 55.475 23.5026 55.5616 22.3701C55.6176 19.6957 55.5819 17.0177 55.5921 14.3416C55.5768 12.5316 55.6617 10.7075 55.3512 8.91697C55.1136 7.55508 54.6521 6.16495 53.6832 5.17176C52.4039 3.77987 50.4509 3.34766 48.6608 3.39882C47.7343 3.36178 46.8045 3.51173 45.929 3.8275C44.7548 4.27206 43.7181 5.03592 42.8069 5.91269C42.6779 6.00971 42.7339 6.18789 42.7187 6.32549C42.7288 11.6319 42.7136 16.9384 42.7254 22.2466C42.7814 23.141 42.8001 24.0725 43.1717 24.8981C43.489 25.5825 44.1711 25.9812 44.8464 26.1876C45.6371 26.4187 46.4465 26.5881 47.2643 26.6798C47.2677 26.9832 47.2677 27.2884 47.2677 27.5919C42.7407 27.5919 38.2103 27.5919 33.6816 27.5936C33.6918 27.2884 33.6935 26.9832 33.7003 26.6781C34.5148 26.5863 35.3224 26.4099 36.108 26.1594C36.8461 25.916 37.552 25.4202 37.8371 24.6423C38.2867 23.3298 38.1917 21.915 38.246 20.546V8.47064C38.2307 7.6715 38.2392 6.8406 37.8964 6.10496C37.3552 4.98652 36.3371 4.23677 35.3954 3.50642C35.3937 3.30355 35.392 3.10244 35.3886 2.90133C37.6877 2.00164 39.9988 1.13546 42.2962 0.230469Z" fill="white"/>
<path d="M75.3157 0.230473H76.5052C77.2382 0.311624 77.9746 0.389242 78.6855 0.595643C80.6012 1.09489 82.3404 2.3333 83.4128 4.06389C84.3562 5.55633 84.7939 7.33985 84.8754 9.11103C79.254 9.10221 73.6325 9.11632 68.0128 9.10397C67.8889 10.0901 67.838 11.0868 67.7753 12.08C67.519 14.9167 68.2639 17.8593 69.9047 20.1526C71.3605 22.2254 73.5918 23.6844 76.0199 24.1448C77.6166 24.4359 79.3032 24.4253 80.8405 23.8414C82.4965 23.2345 83.8437 21.9591 84.8754 20.5107C85.1706 20.733 85.4659 20.957 85.7577 21.1881C84.2136 23.8943 81.9043 26.1841 79.0758 27.3696C75.292 28.9749 70.7209 28.1811 67.5598 25.5173C65.8494 24.1078 64.5565 22.1866 63.7658 20.0785C62.8818 17.7728 62.6442 15.2289 62.9327 12.7751C63.3653 8.70525 65.4354 4.76774 68.7306 2.46207C70.6615 1.07372 72.9843 0.366314 75.3157 0.230473ZM73.149 1.66293C71.5116 1.99105 70.2119 3.27886 69.3889 4.73072C68.8341 5.74509 68.3573 6.8406 68.1961 8.00139C69.4789 7.8585 70.7701 7.91848 72.0546 7.8091C74.4929 7.71737 76.9294 7.61152 79.366 7.48627C78.9723 5.70805 78.2936 3.89101 76.9379 2.66494C75.9198 1.72996 74.4742 1.34892 73.149 1.66293Z" fill="white"/>
<path d="M130.694 0.230491H131.685C133.775 0.37162 135.901 0.962597 137.618 2.23982C137.684 4.0251 137.722 5.81567 137.813 7.60096C137.384 7.69446 136.95 7.76679 136.52 7.86028C135.991 6.0556 135.348 4.17505 134.004 2.84137C132.577 1.42656 130.105 1.24838 128.585 2.5944C127.628 3.45352 127.202 4.81718 127.278 6.10674C127.268 7.48452 128.091 8.69293 129.067 9.55206C130.69 10.9598 132.652 11.8366 134.462 12.9462C135.93 13.8459 137.408 14.8691 138.361 16.3756C139.181 17.6564 139.454 19.26 139.251 20.7736C139.066 22.5465 138.205 24.2101 136.945 25.4097C135.077 27.2161 132.513 28.1035 129.991 28.1934C127.378 28.2587 124.706 27.5636 122.559 25.9759C122.422 24.3776 122.356 22.7741 122.21 21.1758C122.135 20.5389 122.183 19.8897 122.061 19.2564C122.52 19.1576 122.982 19.0465 123.454 19.0236C123.859 21.1282 124.706 23.2028 126.135 24.7816C127.217 25.9477 128.758 26.6604 130.326 26.6269C131.495 26.6586 132.681 26.2 133.514 25.3409C135.138 23.6632 135.306 20.6695 133.819 18.8436C132.974 17.7693 131.802 17.046 130.639 16.3986C128.8 15.3648 126.825 14.5251 125.217 13.105C124.144 12.1841 123.311 10.9334 122.987 9.51677C122.634 7.92201 122.722 6.18083 123.423 4.6972C124.08 3.27709 125.23 2.15335 126.557 1.41595C127.826 0.696195 129.257 0.341629 130.694 0.230491Z" fill="white"/>
<path d="M82.1321 0.823643C86.2298 0.830702 90.3292 0.830702 94.4286 0.823643C94.4235 1.12531 94.4235 1.42697 94.4269 1.72864C93.6634 1.77979 92.8727 1.81155 92.1567 2.12732C91.6934 2.29844 91.2862 2.6742 91.1589 3.1805C91.0622 3.75736 91.1403 4.35363 91.3184 4.9058C91.7104 6.17243 92.2143 7.39673 92.6725 8.6369C94.2776 12.9202 95.9116 17.1893 97.5015 21.4779C99.3272 17.0764 101.1 12.6467 102.907 8.23645C103.03 7.96125 102.848 7.68782 102.767 7.43202C102.195 6.02249 101.805 4.4983 100.922 3.25107C100.176 2.19613 98.8521 1.9421 97.6881 1.72864C97.6915 1.42698 97.6915 1.12708 97.6932 0.825418C101.84 0.825418 105.99 0.839531 110.139 0.818359C110.139 1.12002 110.139 1.42345 110.141 1.72688C109.245 1.79744 108.322 1.86095 107.496 2.26493C106.964 2.52955 106.544 3.0923 106.572 3.72562C106.596 4.56181 106.925 5.34684 107.2 6.11952C109.04 11.2407 110.926 16.3425 112.745 21.4691C113.502 19.8584 114.169 18.2037 114.876 16.5684C116.051 13.7687 117.208 10.9567 118.192 8.07767C118.586 6.83574 118.996 5.58675 119.161 4.28659C119.268 3.588 119.071 2.78357 118.484 2.37077C117.724 1.86623 116.796 1.86623 115.935 1.73216C115.939 1.42873 115.937 1.12707 115.935 0.823639C119.213 0.835986 122.492 0.820112 125.77 0.830697C125.766 1.12707 125.766 1.42344 125.768 1.71981C124.781 1.82566 123.773 2.09909 122.99 2.76593C121.776 3.76971 121.161 5.29743 120.518 6.71754C117.415 13.8799 114.347 21.0598 111.237 28.2168C110.989 28.2097 110.743 28.2133 110.497 28.2309H110.45C108.142 22.0883 105.819 15.9509 103.52 9.80475C101.061 15.935 98.6587 22.0918 96.2187 28.2309H96.1746C95.9031 28.2097 95.6316 28.2062 95.3601 28.2097C92.4519 20.7087 89.5504 13.2059 86.6268 5.71025C86.1975 4.67296 85.7564 3.58626 84.9351 2.81005C84.175 2.08148 83.1331 1.80274 82.127 1.72159C82.132 1.4217 82.1321 1.12354 82.1321 0.823643Z" fill="white"/>
<path d="M21.601 8.46673C22.7463 7.48941 24.1496 6.82081 25.6343 6.68321C27.7875 6.43624 30.0255 7.27595 31.5441 8.87953C32.8863 10.282 33.6719 12.2472 33.6448 14.2301C33.6617 15.9378 33.078 17.6401 32.0447 18.965C30.9469 20.3904 29.3349 21.3854 27.6008 21.6764C25.882 21.9728 24.0563 21.6429 22.5733 20.6797C20.6983 19.5031 19.3867 17.402 19.1492 15.1386C18.8743 13.0341 19.5377 10.8501 20.8629 9.24474C20.4642 9.90628 20.2402 10.6807 20.342 11.4658C20.4828 12.8329 21.5959 14.0167 22.9058 14.1966C24.455 14.4771 26.0483 13.2951 26.3282 11.6969C26.4521 10.9771 26.3656 10.2027 26.0109 9.56228C25.4782 8.53733 24.3668 7.85815 23.2401 7.93048C22.6496 7.92166 22.1083 8.18447 21.601 8.46673Z" fill="#3C445E"/>
</g>
<defs>
<clipPath id="clip0_1312_3292">
<rect width="139" height="28" fill="white" transform="translate(0.333984 0.230469)"/>
</clipPath>
</defs>
</svg>
