<svg width="116" height="31" viewBox="0 0 116 31" fill="none" xmlns="http://www.w3.org/2000/svg">
<g clip-path="url(#clip0_1312_2040)">
<path fill-rule="evenodd" clip-rule="evenodd" d="M0.666016 0.230469V28.2305L29.2882 0.230469H0.666016Z" fill="#9BA8BF"/>
<path fill-rule="evenodd" clip-rule="evenodd" d="M2.71094 30.2305H31.3332V2.23047L2.71094 30.2305Z" fill="#3C445E"/>
<path fill-rule="evenodd" clip-rule="evenodd" d="M47.41 14.5802C50.738 14.5802 52.5072 12.9859 52.5072 10.007V9.83872C52.5072 6.65012 50.6535 5.39146 47.41 5.39146H43.9557V14.5802H47.41ZM37.1738 0.230469H47.5785C54.908 0.230469 59.0786 3.46103 59.0786 9.79725V9.96459C59.0786 16.3003 54.6557 19.3216 47.7889 19.3216H43.9557V30.2305H37.1738V0.230469Z" fill="white"/>
<path fill-rule="evenodd" clip-rule="evenodd" d="M72.5805 25.0695C75.8456 25.0695 77.499 23.643 77.499 20.9154V20.7481C77.499 18.0625 75.8456 16.594 72.4152 16.594H68.6127V25.0695H72.5805ZM72.8286 30.2305H62V0.230469H81.2599V5.51732H68.6543L68.6127 11.8106H73.035C79.8546 11.8106 83.9048 14.7899 83.9048 20.7896V20.9579C83.9048 26.8316 80.1439 30.2305 72.8286 30.2305Z" fill="white"/>
<path fill-rule="evenodd" clip-rule="evenodd" d="M88.832 0.272365H95.953V13.1775L106.942 0.230469H114.502L102.063 14.4344L115.118 30.2305H106.81L95.953 16.7806V30.2305H88.832V0.272365Z" fill="white"/>
</g>
<defs>
<clipPath id="clip0_1312_2040">
<rect width="115" height="30" fill="white" transform="translate(0.666016 0.230469)"/>
</clipPath>
</defs>
</svg>
