<svg width="60" height="56" viewBox="0 0 60 56" fill="none" xmlns="http://www.w3.org/2000/svg">
<circle opacity="0.5" cx="30.2094" cy="27.7368" r="26.8735" fill="#2C3144"/>
<path opacity="0.5" fill-rule="evenodd" clip-rule="evenodd" d="M26.6484 54.376L29.6326 27.9013C29.138 27.022 28.6434 24.9502 30.6218 23.6972C32.6002 22.4442 35.7877 21.8561 37.1341 21.7188L39.6071 22.3782L40.7612 24.5215L54.4066 39.4415C50.0557 48.4193 40.8555 54.6099 30.2095 54.6099C29.0022 54.6099 27.8135 54.5303 26.6484 54.376Z" fill="#3C445D"/>
<g clip-path="url(#clip0_1114_25092)">
<path fill-rule="evenodd" clip-rule="evenodd" d="M7.53387 27.6166C6.25808 27.8256 5.08073 28.4307 4.16363 29.3487C3.24653 30.2667 2.63472 31.4526 2.41227 32.7434C2.18983 34.0341 2.36769 35.3664 2.92139 36.557C3.47509 37.7476 4.37746 38.7382 5.50447 39.3926C6.63147 40.0469 7.92779 40.3329 9.21523 40.2113C10.5027 40.0896 11.718 39.5663 12.6943 38.7132C13.6705 37.8601 14.3597 36.7191 14.6671 35.4471C14.9745 34.1751 14.8851 32.8345 14.411 31.6096C13.8855 30.2476 12.9147 29.1069 11.6621 28.3797C10.4095 27.6524 8.9516 27.3829 7.53387 27.6166ZM9.91348 37.0108C9.27205 37.2854 8.56021 37.3486 7.878 37.1915C7.19579 37.0343 6.57751 36.6648 6.11006 36.1348C5.6426 35.6047 5.34948 34.9409 5.27187 34.2365C5.19426 33.5321 5.33608 32.8226 5.67739 32.2077C6.0187 31.5928 6.54234 31.1034 7.17473 30.8083C7.80711 30.5131 8.51644 30.4272 9.20302 30.5624C9.88961 30.6976 10.5189 31.0473 11.0026 31.5622C11.4862 32.0771 11.7998 32.7314 11.8993 33.4331C12.0041 34.1712 11.8664 34.9217 11.5074 35.5684C11.1484 36.2152 10.5882 36.7221 9.91348 37.0108ZM16.195 25.4898C15.9859 25.5479 15.7927 25.6528 15.6293 25.7966C15.466 25.9404 15.3366 26.1196 15.2506 26.3212C15.1646 26.5228 15.1241 26.7416 15.1322 26.9618C15.1403 27.182 15.1966 27.398 15.2972 27.5941C15.6153 28.2316 16.3616 28.5213 17.0364 28.3353L20.9518 27.2558L17.1179 37.1313C17.0895 37.2042 17.0818 37.2839 17.0956 37.3614C17.1094 37.4388 17.1442 37.5111 17.1961 37.57C17.2479 37.6289 17.3148 37.6721 17.3892 37.6948C17.4637 37.7174 17.5427 37.7187 17.6174 37.6984L27.1755 35.0633C27.8497 34.8774 28.3426 34.2462 28.2891 33.5357C28.275 33.3158 28.2127 33.1014 28.1069 32.9082C28.001 32.715 27.8542 32.5478 27.6771 32.4187C27.5 32.2897 27.2971 32.202 27.0832 32.1622C26.8692 32.1223 26.6496 32.1312 26.4403 32.1883L21.6696 33.5035L25.5006 23.6357C25.5292 23.5621 25.537 23.4816 25.5231 23.4034C25.5091 23.3252 25.474 23.2522 25.4216 23.1928C25.3692 23.1334 25.3016 23.0898 25.2265 23.0669C25.1513 23.044 25.0715 23.0428 24.9961 23.0634L16.195 25.4898ZM54.3974 14.9931C54.102 15.1568 53.8715 15.4183 53.7438 15.7343C53.6161 16.0504 53.599 16.402 53.6953 16.7311L55.0081 21.4931L45.7232 17.4458C45.6504 17.4142 45.5704 17.404 45.4926 17.4163C45.4147 17.4287 45.342 17.4631 45.2829 17.5157C45.2237 17.5682 45.1806 17.6368 45.1584 17.7134C45.1362 17.79 45.1358 17.8716 45.1573 17.9488L47.868 27.7813C47.954 28.1132 48.1489 28.4064 48.4205 28.6124C48.6921 28.8184 49.0241 28.9248 49.3616 28.914C49.5797 28.9033 49.7923 28.843 49.9837 28.7377C50.1751 28.6323 50.3403 28.4846 50.4672 28.3053C50.5941 28.126 50.6795 27.9198 50.717 27.7019C50.7545 27.4839 50.7433 27.2598 50.684 27.046L49.3598 22.2428L58.6449 26.2902C58.7177 26.3218 58.7976 26.332 58.8754 26.3197C58.9533 26.3073 59.026 26.2729 59.0851 26.2203C59.1441 26.1678 59.1873 26.0993 59.2095 26.0227C59.2317 25.9461 59.2321 25.8646 59.2106 25.7874L56.49 15.9191C56.4312 15.7052 56.3261 15.507 56.1821 15.3392C56.0382 15.1713 55.8593 15.0381 55.6584 14.9492C55.4576 14.8603 55.2401 14.8181 55.0218 14.8257C54.8035 14.8333 54.5902 14.8905 54.3974 14.9931ZM35.3336 22.9963C38.5448 22.111 41.4197 23.1742 41.8451 24.717C42.2704 26.2598 40.3465 28.6461 37.1353 29.5314C33.924 30.4168 31.0491 29.3535 30.6237 27.8107C30.1984 26.2679 32.1223 23.8816 35.3336 22.9963ZM34.5451 20.1363C29.8969 21.4178 26.8853 25.2 27.8183 28.5841C28.7513 31.9683 33.2756 33.6729 37.9237 32.3914C42.5719 31.11 45.5834 27.3278 44.6504 23.9436C43.7174 20.5595 39.1931 18.8549 34.5451 20.1363Z" fill="white"/>
</g>
<defs>
<clipPath id="clip0_1114_25092">
<rect width="57.1779" height="12.7205" fill="white" transform="translate(0.898438 29.4102) rotate(-15.4132)"/>
</clipPath>
</defs>
</svg>
