<svg width="60" height="56" viewBox="0 0 60 56" fill="none" xmlns="http://www.w3.org/2000/svg">
<g opacity="0.5">
<path d="M25.5734 20.4337C24.7965 14.2566 19.5246 9.47852 13.1368 9.47852C6.21377 9.47852 0.601562 15.0907 0.601562 22.0137C0.601562 28.9368 6.21377 34.549 13.1368 34.549C15.1631 34.549 17.0772 34.0681 18.7711 33.2144C17.6704 34.9764 17.0343 37.0585 17.0343 39.2892C17.0343 45.6304 22.1749 50.771 28.5161 50.771C32.7957 50.771 36.5285 48.4296 38.5033 44.9579C39.7487 45.9587 41.3308 46.5575 43.0528 46.5575C47.067 46.5575 50.3211 43.3034 50.3211 39.2892C50.3211 38.3638 50.1482 37.4789 49.8329 36.6649C53.5144 34.6407 56.0093 30.7253 56.0093 26.2273C56.0093 19.6533 50.6801 14.3241 44.1062 14.3241C37.5322 14.3241 32.203 19.6533 32.203 26.2273C32.203 26.9999 32.2766 27.7554 32.4172 28.487C31.975 28.3273 31.5202 28.194 31.0547 28.0889C31.2528 27.5046 31.3603 26.8785 31.3603 26.2273C31.3603 23.0298 28.77 20.4373 25.5734 20.4337Z" fill="#2C3144"/>
<circle cx="14.9269" cy="37.9201" r="3.79217" fill="#363C53"/>
<circle cx="36.4157" cy="17.695" r="12.8512" fill="#3C445E"/>
<circle cx="51.7953" cy="35.392" r="7.58434" fill="#3C445E"/>
<circle cx="8.18499" cy="34.5492" r="6.74163" fill="#3C445E"/>
<circle cx="56.009" cy="11.3752" r="3.79217" fill="#3C445E"/>
</g>
<path d="M14.7792 37.9197L10.082 20.4351H13.1602L16.7723 33.864L20.6415 20.4336H23.5134L27.3949 33.9339L31.021 20.4367H34.0991L29.4034 37.9166H25.8313L22.0867 24.856L18.3299 37.9088L14.7792 37.9197Z" fill="white"/>
<path d="M49.2661 32.911C49.2839 33.5844 49.1547 34.2535 48.8874 34.8712C48.6202 35.4889 48.2214 36.0403 47.7193 36.4864C46.699 37.4382 45.3491 37.952 43.9574 37.9181H36.4165V20.4345H43.4175C44.7699 20.4092 46.0802 20.9074 47.0774 21.8258C47.5639 22.2549 47.9508 22.7861 48.2109 23.3818C48.4709 23.9775 48.5978 24.6234 48.5824 25.2737C48.5824 26.8049 47.973 27.9755 46.7943 28.8413C48.3303 29.6466 49.2661 31.1 49.2661 32.911ZM39.323 23.1331V27.7298H43.4299C44.0262 27.7143 44.5928 27.4653 45.009 27.036C45.4253 26.6066 45.6582 26.0309 45.6582 25.4315C45.6582 24.8321 45.4253 24.2564 45.009 23.827C44.5928 23.3977 44.0262 23.1487 43.4299 23.1331H39.323ZM43.979 35.2102C44.6123 35.1941 45.2143 34.93 45.6565 34.4742C46.0988 34.0184 46.3463 33.407 46.3463 32.7703C46.3463 32.1337 46.0988 31.5223 45.6565 31.0665C45.2143 30.6107 44.6123 30.3466 43.979 30.3305H39.323V35.2304H43.979V35.2102Z" fill="white"/>
</svg>
