<svg width="16" height="16" viewBox="0 0 16 16" fill="none" xmlns="http://www.w3.org/2000/svg">
<g id="icons">
<path id="Vector" fill-rule="evenodd" clip-rule="evenodd" d="M3.50001 6.70311V5.33337C3.50001 2.84809 5.51473 0.833374 8.00001 0.833374C10.4853 0.833374 12.5 2.84809 12.5 5.33337V6.70311C13.2432 6.75862 13.7271 6.89874 14.0809 7.25249C14.6667 7.83828 14.6667 8.78109 14.6667 10.6667C14.6667 12.5523 14.6667 13.4951 14.0809 14.0809C13.4951 14.6667 12.5523 14.6667 10.6667 14.6667H5.33334C3.44773 14.6667 2.50492 14.6667 1.91913 14.0809C1.33334 13.4951 1.33334 12.5523 1.33334 10.6667C1.33334 8.78109 1.33334 7.83828 1.91913 7.25249C2.27288 6.89874 2.75684 6.75862 3.50001 6.70311ZM4.50001 5.33337C4.50001 3.40038 6.06701 1.83337 8.00001 1.83337C9.93301 1.83337 11.5 3.40038 11.5 5.33337V6.66909C11.2447 6.66671 10.9677 6.66671 10.6667 6.66671H5.33334C5.03233 6.66671 4.75535 6.66671 4.50001 6.66909V5.33337Z" fill="#3C445E"/>
</g>
</svg>
