<svg width="130" height="24" viewBox="0 0 130 24" fill="none" xmlns="http://www.w3.org/2000/svg">
<path d="M11.1023 1.19995C4.79327 1.19995 0 5.73445 0 12.2C0 18.6655 4.79327 23.2 11.1023 23.2C13.6672 23.2 15.9815 22.4505 17.8251 21.1267V17.2C16.3762 19.2373 13.986 20.4708 11.1023 20.4708C6.30258 20.4708 2.86983 17.0536 2.86983 12.2C2.86983 7.34628 6.30258 3.92914 11.1023 3.92914C13.986 3.92914 16.3762 5.16258 17.8251 7.19995V3.27325C15.9815 1.94936 13.6672 1.19995 11.1023 1.19995Z" fill="white"/>
<path fill-rule="evenodd" clip-rule="evenodd" d="M43.0576 12.2C43.0576 5.73445 38.2643 1.19995 31.9552 1.19995C25.6462 1.19995 20.8529 5.73445 20.8529 12.2C20.8529 18.6655 25.6462 23.2 31.9552 23.2C38.2643 23.2 43.0576 18.6655 43.0576 12.2ZM23.7227 12.2C23.7227 7.34628 27.1555 3.92914 31.9552 3.92914C36.755 3.92914 40.1877 7.34628 40.1877 12.2C40.1877 17.0536 36.755 20.4708 31.9552 20.4708C27.1555 20.4708 23.7227 17.0536 23.7227 12.2Z" fill="white"/>
<path d="M57.1878 1.19995C50.8787 1.19995 46.0854 5.73445 46.0854 12.2C46.0854 18.6655 50.8787 23.2 57.1878 23.2C59.7526 23.2 62.0669 22.4505 63.9105 21.1267V17.2C62.4617 19.2373 60.0714 20.4708 57.1878 20.4708C52.388 20.4708 48.9553 17.0536 48.9553 12.2C48.9553 7.34628 52.388 3.92914 57.1878 3.92914C60.0714 3.92914 62.4617 5.16258 63.9105 7.19995V3.27325C62.0669 1.94936 59.7526 1.19995 57.1878 1.19995Z" fill="white"/>
<ellipse cx="79.0502" cy="12" rx="12.1116" ry="12" fill="url(#paint0_linear_619_1162)"/>
<ellipse cx="95.199" cy="12" rx="12.1116" ry="12" transform="rotate(-180 95.199 12)" fill="url(#paint1_linear_619_1162)"/>
<path fill-rule="evenodd" clip-rule="evenodd" d="M129.841 24V1H126.989V17L110.339 0V23H113.191L113.191 7L129.841 24Z" fill="white"/>
<defs>
<linearGradient id="paint0_linear_619_1162" x1="79.0502" y1="24" x2="79.0502" y2="8.84756e-09" gradientUnits="userSpaceOnUse">
<stop stop-color="#A917DC"/>
<stop offset="1" stop-color="#A917DC" stop-opacity="0"/>
</linearGradient>
<linearGradient id="paint1_linear_619_1162" x1="95.199" y1="24" x2="95.199" y2="2.86987e-06" gradientUnits="userSpaceOnUse">
<stop stop-color="#C450ED"/>
<stop offset="1" stop-color="#C450ED" stop-opacity="0"/>
</linearGradient>
</defs>
</svg>
