<svg width="207" height="73" viewBox="0 0 207 73" fill="none" xmlns="http://www.w3.org/2000/svg">
<mask id="path-1-outside-1_102_13867" maskUnits="userSpaceOnUse" x="0" y="0" width="207" height="73" fill="black">
<rect fill="white" width="207" height="73"/>
<path d="M1 29C1 13.536 13.536 1 29 1H178.971C194.435 1 206.971 13.536 206.971 29V45C206.971 60.464 194.435 73 178.971 73H29C13.536 73 1 60.464 1 45V29Z"/>
</mask>
<path d="M1 29C1 13.536 13.536 1 29 1H178.971C194.435 1 206.971 13.536 206.971 29V45C206.971 60.464 194.435 73 178.971 73H29C13.536 73 1 60.464 1 45V29Z" fill="url(#paint0_radial_102_13867)"/>
<path d="M0 29C0 12.9837 12.9837 0 29 0H177.971C193.987 0 206.971 12.9837 206.971 29C206.971 14.0883 194.435 2 178.971 2H29C14.0883 2 2 14.0883 2 29H0ZM206.971 73H1H206.971ZM29 73C12.9837 73 0 60.0163 0 44V29C0 12.9837 12.9837 0 29 0V2C14.0883 2 2 14.0883 2 29V45C2 60.464 14.0883 73 29 73ZM206.971 1V73V1Z" fill="url(#paint1_linear_102_13867)" mask="url(#path-1-outside-1_102_13867)"/>
<mask id="path-3-outside-2_102_13867" maskUnits="userSpaceOnUse" x="12" y="12" width="49" height="49" fill="black">
<rect fill="white" x="12" y="12" width="49" height="49"/>
<path d="M13 29C13 20.1634 20.1634 13 29 13H45C53.8366 13 61 20.1634 61 29V45C61 53.8366 53.8366 61 45 61H29C20.1634 61 13 53.8366 13 45V29Z"/>
</mask>
<path d="M13 29C13 20.1634 20.1634 13 29 13H45C53.8366 13 61 20.1634 61 29V45C61 53.8366 53.8366 61 45 61H29C20.1634 61 13 53.8366 13 45V29Z" fill="url(#paint2_radial_102_13867)"/>
<path d="M12 29C12 19.6112 19.6112 12 29 12H44C53.3888 12 61 19.6112 61 29C61 20.7157 53.8366 14 45 14H29C20.7157 14 14 20.7157 14 29H12ZM61 61H13H61ZM29 61C19.6112 61 12 53.3888 12 44V29C12 19.6112 19.6112 12 29 12V14C20.7157 14 14 20.7157 14 29V45C14 53.8366 20.7157 61 29 61ZM61 13V61V13Z" fill="url(#paint3_linear_102_13867)" mask="url(#path-3-outside-2_102_13867)"/>
<path d="M28.0295 27.3088C27.7955 27.5479 27.6602 27.9201 27.6602 28.4022V45.5982C27.6602 46.0803 27.7955 46.4526 28.0295 46.6917L28.0872 46.7441L37.9568 37.112V36.8845L28.0872 27.2524L28.0295 27.3088Z" fill="url(#paint4_linear_102_13867)"/>
<path d="M41.2432 40.3242L37.957 37.1119V36.8844L41.2472 33.6721L41.3209 33.7139L45.2173 35.8785C46.3293 36.4927 46.3293 37.5036 45.2173 38.1218L41.3209 40.2824L41.2432 40.3242Z" fill="url(#paint5_linear_102_13867)"/>
<path d="M41.3204 40.2827L37.9566 36.9984L28.0293 46.6918C28.3986 47.0709 29.0009 47.1166 29.6858 46.7375L41.3204 40.2827Z" fill="url(#paint6_linear_102_13867)"/>
<path d="M41.3204 33.7138L29.6858 27.259C29.0009 26.8838 28.3986 26.9295 28.0293 27.3085L37.9566 36.998L41.3204 33.7138Z" fill="url(#paint7_linear_102_13867)"/>
<g opacity="0.3" filter="url(#filter0_f_102_13867)">
<path d="M28.2033 30.6428C27.9694 30.8819 27.834 31.2541 27.834 31.7362V48.9322C27.834 49.4143 27.9694 49.7865 28.2033 50.0256L28.2611 50.0781L38.1306 40.446V40.2185L28.2611 30.5864L28.2033 30.6428Z" fill="url(#paint8_linear_102_13867)"/>
<path d="M41.4171 43.6582L38.1309 40.4459V40.2184L41.421 37.0061L41.4947 37.0479L45.3911 39.2124C46.5031 39.8267 46.5031 40.8376 45.3911 41.4557L41.4947 43.6164L41.4171 43.6582Z" fill="url(#paint9_linear_102_13867)"/>
<path d="M41.4942 43.6167L38.1304 40.3324L28.2031 50.0258C28.5725 50.4049 29.1747 50.4506 29.8597 50.0715L41.4942 43.6167Z" fill="url(#paint10_linear_102_13867)"/>
<path d="M41.4942 37.0478L29.8597 30.593C29.1747 30.2178 28.5725 30.2635 28.2031 30.6425L38.1304 40.332L41.4942 37.0478Z" fill="url(#paint11_linear_102_13867)"/>
</g>
<path d="M80.9259 23.311C80.9259 24.3764 80.5992 25.2297 79.9556 25.866C79.2156 26.6204 78.2518 27 77.0708 27C75.942 27 74.9782 26.614 74.1876 25.8533C73.3953 25.0813 73 24.134 73 23C73 21.866 73.3953 20.9187 74.1876 20.1531C74.9782 19.386 75.942 19 77.0708 19C77.6327 19 78.1685 19.1132 78.6798 19.3238C79.1895 19.5359 79.6044 19.823 79.905 20.177L79.2222 20.8501C78.6978 20.2456 77.9839 19.9474 77.0708 19.9474C76.2475 19.9474 75.5336 20.2281 74.9276 20.7943C74.3281 21.362 74.0275 22.0973 74.0275 23C74.0275 23.9027 74.3281 24.6443 74.9276 25.2121C75.5336 25.7719 76.2475 26.059 77.0708 26.059C77.9447 26.059 78.6798 25.7719 79.2597 25.2057C79.642 24.8309 79.8593 24.3142 79.9164 23.6539H77.0708V22.7321H80.8671C80.9129 22.9314 80.9259 23.1244 80.9259 23.311Z" fill="white" fill-opacity="0.4"/>
<path d="M86.9486 20.1152H83.3826V22.5394H86.5974V23.4613H83.3826V25.8855H86.9486V26.8249H82.373V19.1758H86.9486V20.1152Z" fill="white" fill-opacity="0.4"/>
<path d="M91.2007 26.8249H90.1912V20.1152H88.0039V19.1758H93.3897V20.1152H91.2007V26.8249Z" fill="white" fill-opacity="0.4"/>
<path d="M97.2852 26.8249V19.1758H98.2931V26.8249H97.2852Z" fill="white" fill-opacity="0.4"/>
<path d="M102.761 26.8249H101.76V20.1152H99.5645V19.1758H104.957V20.1152H102.761V26.8249Z" fill="white" fill-opacity="0.4"/>
<path d="M115.153 25.8405C114.38 26.614 113.423 27 112.281 27C111.133 27 110.176 26.614 109.403 25.8405C108.632 25.0686 108.248 24.1212 108.248 23C108.248 21.8788 108.632 20.9314 109.403 20.1595C110.176 19.386 111.133 19 112.281 19C113.417 19 114.374 19.386 115.147 20.1659C115.924 20.9442 116.308 21.8852 116.308 23C116.308 24.1212 115.924 25.0686 115.153 25.8405ZM110.149 25.1994C110.731 25.7719 111.438 26.059 112.281 26.059C113.118 26.059 113.832 25.7719 114.407 25.1994C114.986 24.6268 115.28 23.8915 115.28 23C115.28 22.1085 114.986 21.3732 114.407 20.8006C113.832 20.2281 113.118 19.941 112.281 19.941C111.438 19.941 110.731 20.2281 110.149 20.8006C109.57 21.3732 109.276 22.1085 109.276 23C109.276 23.8915 109.57 24.6268 110.149 25.1994Z" fill="white" fill-opacity="0.4"/>
<path d="M117.725 26.8249V19.1758H118.95L122.759 25.1247H122.803L122.759 23.6542V19.1758H123.767V26.8249H122.715L118.726 20.5825H118.682L118.726 22.0594V26.8249H117.725Z" fill="white" fill-opacity="0.4"/>
<path d="M105.589 40.5266C102.764 40.5266 100.456 42.6257 100.456 45.5218C100.456 48.3945 102.764 50.5156 105.589 50.5156C108.42 50.5156 110.728 48.3945 110.728 45.5218C110.728 42.6257 108.42 40.5266 105.589 40.5266ZM105.589 48.5486C104.039 48.5486 102.705 47.2995 102.705 45.5218C102.705 43.7207 104.039 42.4936 105.589 42.4936C107.139 42.4936 108.479 43.7207 108.479 45.5218C108.479 47.2995 107.139 48.5486 105.589 48.5486ZM94.3897 40.5266C91.5587 40.5266 89.2569 42.6257 89.2569 45.5218C89.2569 48.3945 91.5587 50.5156 94.3897 50.5156C97.2192 50.5156 99.5225 48.3945 99.5225 45.5218C99.5225 42.6257 97.2192 40.5266 94.3897 40.5266ZM94.3897 48.5486C92.8381 48.5486 91.5001 47.2995 91.5001 45.5218C91.5001 43.7207 92.8381 42.4936 94.3897 42.4936C95.9398 42.4936 97.2733 43.7207 97.2733 45.5218C97.2733 47.2995 95.9398 48.5486 94.3897 48.5486ZM81.063 42.0576V44.1802H86.2545C86.1026 45.3662 85.6967 46.2382 85.0743 46.8459C84.3165 47.5798 83.1363 48.3945 81.063 48.3945C77.8682 48.3945 75.3664 45.8771 75.3664 42.7578C75.3664 39.6385 77.8682 37.1211 81.063 37.1211C82.7905 37.1211 84.0474 37.7802 84.975 38.6345L86.5071 37.1387C85.2096 35.9292 83.4836 35 81.063 35C76.682 35 73 38.4804 73 42.7578C73 47.0352 76.682 50.5156 81.063 50.5156C83.431 50.5156 85.2096 49.7582 86.6078 48.3372C88.0406 46.9383 88.4871 44.9714 88.4871 43.3831C88.4871 42.8899 88.445 42.4363 88.3699 42.0576H81.063ZM135.557 43.7031C135.135 42.5861 133.831 40.5266 131.176 40.5266C128.545 40.5266 126.355 42.5508 126.355 45.5218C126.355 48.3196 128.523 50.5156 131.429 50.5156C133.779 50.5156 135.135 49.1167 135.693 48.302L133.949 47.1673C133.367 47.9982 132.575 48.5486 131.429 48.5486C130.291 48.5486 129.474 48.0393 128.951 47.0352L135.793 44.2712L135.557 43.7031ZM128.581 45.3662C128.523 43.4404 130.113 42.4539 131.253 42.4539C132.146 42.4539 132.904 42.8899 133.156 43.5138L128.581 45.3662ZM123.02 50.2117H125.269V35.5328H123.02V50.2117ZM119.337 41.6393H119.261C118.756 41.055 117.793 40.5266 116.572 40.5266C114.01 40.5266 111.667 42.7226 111.667 45.538C111.667 48.3372 114.01 50.5156 116.572 50.5156C117.793 50.5156 118.756 49.9828 119.261 49.3809H119.337V50.0972C119.337 52.007 118.292 53.033 116.606 53.033C115.232 53.033 114.38 52.0642 114.028 51.2495L112.072 52.0466C112.636 53.3706 114.129 55 116.606 55C119.243 55 121.468 53.4851 121.468 49.7993V40.8305H119.337V41.6393ZM116.764 48.5486C115.214 48.5486 113.917 47.2818 113.917 45.538C113.917 43.778 115.214 42.4936 116.764 42.4936C118.292 42.4936 119.496 43.778 119.496 45.538C119.496 47.2818 118.292 48.5486 116.764 48.5486ZM146.088 35.5328H140.708V50.2117H142.951V44.6499H146.088C148.579 44.6499 151.022 42.8899 151.022 40.0906C151.022 37.2928 148.573 35.5328 146.088 35.5328ZM146.146 42.6081H142.951V37.5747H146.146C147.821 37.5747 148.777 38.9325 148.777 40.0906C148.777 41.2268 147.821 42.6081 146.146 42.6081ZM160.013 40.4987C158.392 40.4987 156.707 41.1974 156.013 42.7461L158.004 43.5607C158.433 42.7461 159.22 42.4818 160.053 42.4818C161.217 42.4818 162.397 43.1644 162.415 44.3695V44.5237C162.009 44.2947 161.14 43.9556 160.071 43.9556C157.927 43.9556 155.743 45.1079 155.743 47.2584C155.743 49.2253 157.499 50.4921 159.473 50.4921C160.982 50.4921 161.815 49.8272 162.339 49.0536H162.415V50.1883H164.582V44.5574C164.582 41.9549 162.591 40.4987 160.013 40.4987ZM159.742 48.5428C159.008 48.5428 157.986 48.1875 157.986 47.2995C157.986 46.1633 159.261 45.7273 160.364 45.7273C161.352 45.7273 161.815 45.9402 162.415 46.2206C162.239 47.5798 161.041 48.5428 159.742 48.5428ZM172.475 40.8202L169.896 47.1835H169.82L167.154 40.8202H164.735L168.74 49.7127L166.455 54.6609H168.799L174.971 40.8202H172.475ZM152.255 50.2117H154.504V35.5328H152.255V50.2117Z" fill="white"/>
<defs>
<filter id="filter0_f_102_13867" x="19.834" y="22.334" width="34.3906" height="36" filterUnits="userSpaceOnUse" color-interpolation-filters="sRGB">
<feFlood flood-opacity="0" result="BackgroundImageFix"/>
<feBlend mode="normal" in="SourceGraphic" in2="BackgroundImageFix" result="shape"/>
<feGaussianBlur stdDeviation="4" result="effect1_foregroundBlur_102_13867"/>
</filter>
<radialGradient id="paint0_radial_102_13867" cx="0" cy="0" r="1" gradientUnits="userSpaceOnUse" gradientTransform="translate(42.7982 10.7008) scale(169.171 91.1557)">
<stop stop-color="#1D1A24"/>
<stop offset="0.5" stop-color="#1C1925" stop-opacity="0.83"/>
<stop offset="0.996483" stop-color="#1C1925" stop-opacity="0.46"/>
</radialGradient>
<linearGradient id="paint1_linear_102_13867" x1="-24.9702" y1="42.9211" x2="28.7595" y2="-40.8296" gradientUnits="userSpaceOnUse">
<stop offset="0.0254865" stop-color="#2D2939"/>
<stop offset="0.514554" stop-color="#322D40"/>
<stop offset="1" stop-color="#2D2939"/>
</linearGradient>
<radialGradient id="paint2_radial_102_13867" cx="0" cy="0" r="1" gradientUnits="userSpaceOnUse" gradientTransform="translate(20.1111 16.5556) rotate(50.3073) scale(57.759 45.0709)">
<stop stop-color="#262231"/>
<stop offset="1" stop-color="#262231" stop-opacity="0"/>
</radialGradient>
<linearGradient id="paint3_linear_102_13867" x1="6.94783" y1="40.9474" x2="40.0608" y2="22.9048" gradientUnits="userSpaceOnUse">
<stop offset="0.0254865" stop-color="#2D2939"/>
<stop offset="0.514554" stop-color="#322D40"/>
<stop offset="1" stop-color="#2D2939"/>
</linearGradient>
<linearGradient id="paint4_linear_102_13867" x1="37.0805" y1="45.7773" x2="24.0347" y2="32.4154" gradientUnits="userSpaceOnUse">
<stop stop-color="#00A0FF"/>
<stop offset="0.0066" stop-color="#00A1FF"/>
<stop offset="0.2601" stop-color="#00BEFF"/>
<stop offset="0.5122" stop-color="#00D2FF"/>
<stop offset="0.7604" stop-color="#00DFFF"/>
<stop offset="1" stop-color="#00E3FF"/>
</linearGradient>
<linearGradient id="paint5_linear_102_13867" x1="46.6653" y1="36.9971" x2="27.3946" y2="36.9971" gradientUnits="userSpaceOnUse">
<stop stop-color="#FFE000"/>
<stop offset="0.4087" stop-color="#FFBD00"/>
<stop offset="0.7754" stop-color="#FFA500"/>
<stop offset="1" stop-color="#FF9C00"/>
</linearGradient>
<linearGradient id="paint6_linear_102_13867" x1="39.4913" y1="35.2131" x2="21.8001" y2="17.0933" gradientUnits="userSpaceOnUse">
<stop stop-color="#FF3A44"/>
<stop offset="1" stop-color="#C31162"/>
</linearGradient>
<linearGradient id="paint7_linear_102_13867" x1="25.5304" y1="52.4124" x2="33.4303" y2="44.3212" gradientUnits="userSpaceOnUse">
<stop stop-color="#32A071"/>
<stop offset="0.0685" stop-color="#2DA771"/>
<stop offset="0.4762" stop-color="#15CF74"/>
<stop offset="0.8009" stop-color="#06E775"/>
<stop offset="1" stop-color="#00F076"/>
</linearGradient>
<linearGradient id="paint8_linear_102_13867" x1="37.2543" y1="49.1113" x2="24.2085" y2="35.7494" gradientUnits="userSpaceOnUse">
<stop stop-color="#00A0FF"/>
<stop offset="0.0066" stop-color="#00A1FF"/>
<stop offset="0.2601" stop-color="#00BEFF"/>
<stop offset="0.5122" stop-color="#00D2FF"/>
<stop offset="0.7604" stop-color="#00DFFF"/>
<stop offset="1" stop-color="#00E3FF"/>
</linearGradient>
<linearGradient id="paint9_linear_102_13867" x1="46.8391" y1="40.3311" x2="27.5685" y2="40.3311" gradientUnits="userSpaceOnUse">
<stop stop-color="#FFE000"/>
<stop offset="0.4087" stop-color="#FFBD00"/>
<stop offset="0.7754" stop-color="#FFA500"/>
<stop offset="1" stop-color="#FF9C00"/>
</linearGradient>
<linearGradient id="paint10_linear_102_13867" x1="39.6651" y1="38.5471" x2="21.974" y2="20.4273" gradientUnits="userSpaceOnUse">
<stop stop-color="#FF3A44"/>
<stop offset="1" stop-color="#C31162"/>
</linearGradient>
<linearGradient id="paint11_linear_102_13867" x1="25.7042" y1="55.7464" x2="33.6041" y2="47.6552" gradientUnits="userSpaceOnUse">
<stop stop-color="#32A071"/>
<stop offset="0.0685" stop-color="#2DA771"/>
<stop offset="0.4762" stop-color="#15CF74"/>
<stop offset="0.8009" stop-color="#06E775"/>
<stop offset="1" stop-color="#00F076"/>
</linearGradient>
</defs>
</svg>
