<svg width="56" height="56" viewBox="0 0 56 56" fill="none" xmlns="http://www.w3.org/2000/svg">
<path d="M29.4895 36.6028C28.2081 35.6611 27.601 34.2821 27.601 32.1632C27.601 29.5062 28.4104 26.2774 29.7593 24.8648C30.7035 23.9231 32.0524 23.4859 33.8734 23.4859C36.4701 23.4859 39.6737 24.1585 40.9889 25.5375C41.8994 26.4456 42.3041 27.69 42.3041 29.4389C42.3041 31.9614 41.5959 35.4929 40.0109 36.9728C39.1004 37.78 37.9201 38.15 36.2003 38.15C33.8734 38.1163 30.9396 37.5782 29.4895 36.6028ZM40.9214 42.1523L40.6179 44.5739L47.3962 45.4148L50.5998 19.2817L43.8216 18.4409L43.5181 20.9634H42.7087C41.6971 19.1808 38.9993 16.7592 33.8734 16.7592C26.758 16.7592 21.4973 22.006 20.553 29.1699C20.4519 29.8762 20.4181 30.5825 20.4181 31.2888C20.4181 38.15 25.0719 43.7667 32.3559 44.5739C32.7606 44.6076 33.1653 44.6412 33.5699 44.6076C36.605 44.6076 38.8981 43.2959 40.0784 42.1523H40.9214ZM10.3688 5.12207L5.95117 40.3361L13.1341 41.2106L17.4843 5.99654L10.3688 5.12207Z" fill="white"/>
</svg>
