<svg width="60" height="47" viewBox="0 0 60 47" fill="none" xmlns="http://www.w3.org/2000/svg">
<path d="M25.3722 16.4337C24.5953 10.2566 19.3235 5.47852 12.9356 5.47852C6.0126 5.47852 0.400391 11.0907 0.400391 18.0137C0.400391 24.9368 6.0126 30.549 12.9356 30.549C14.962 30.549 16.8761 30.0681 18.57 29.2144C17.4692 30.9764 16.8331 33.0585 16.8331 35.2892C16.8331 41.6304 21.9737 46.771 28.315 46.771C32.5946 46.771 36.3274 44.4296 38.3021 40.9579C39.5475 41.9587 41.1296 42.5575 42.8516 42.5575C46.8658 42.5575 50.1199 39.3034 50.1199 35.2892C50.1199 34.3638 49.947 33.4789 49.6317 32.6649C53.3132 30.6407 55.8082 26.7253 55.8082 22.2273C55.8082 15.6533 50.4789 10.3241 43.905 10.3241C37.331 10.3241 32.0018 15.6533 32.0018 22.2273C32.0018 22.9999 32.0754 23.7554 32.216 24.487C31.7738 24.3273 31.319 24.194 30.8535 24.0889C31.0516 23.5046 31.1591 22.8785 31.1591 22.2273C31.1591 19.0298 28.5688 16.4373 25.3722 16.4337Z" fill="#831B76"/>
<circle cx="14.7258" cy="33.9201" r="3.79217" fill="#831B76"/>
<circle cx="36.2145" cy="13.695" r="12.8512" fill="#F0218E"/>
<circle cx="51.5941" cy="31.392" r="7.58434" fill="#F0218E"/>
<circle cx="7.98382" cy="30.5492" r="6.74163" fill="#F0218E"/>
<circle cx="55.8078" cy="7.3742" r="3.79217" fill="#F0218E"/>
<path d="M14.5781 33.9197L9.88086 16.4351H12.959L16.5712 29.864L20.4404 16.4336H23.3123L27.1938 29.9339L30.8198 16.4367H33.8979L29.2022 33.9166H25.6301L21.8855 20.856L18.1287 33.9088L14.5781 33.9197Z" fill="white"/>
<path d="M49.065 28.911C49.0828 29.5844 48.9535 30.2535 48.6862 30.8712C48.419 31.4889 48.0203 32.0402 47.5181 32.4864C46.4978 33.4382 45.148 33.952 43.7562 33.9181H36.2154V16.4345H43.2164C44.5687 16.4092 45.879 16.9074 46.8762 17.8258C47.3627 18.2549 47.7496 18.7861 48.0097 19.3818C48.2698 19.9775 48.3966 20.6234 48.3813 21.2737C48.3813 22.8049 47.7718 23.9755 46.5931 24.8413C48.1291 25.6466 49.065 27.1 49.065 28.911ZM39.1219 19.1331V23.7298H43.2287C43.825 23.7143 44.3916 23.4653 44.8079 23.036C45.2241 22.6066 45.457 22.0309 45.457 21.4315C45.457 20.8321 45.2241 20.2564 44.8079 19.827C44.3916 19.3977 43.825 19.1487 43.2287 19.1331H39.1219ZM43.7779 31.2102C44.4111 31.1941 45.0131 30.93 45.4554 30.4742C45.8976 30.0184 46.1451 29.407 46.1451 28.7703C46.1451 28.1337 45.8976 27.5223 45.4554 27.0665C45.0131 26.6107 44.4111 26.3466 43.7779 26.3305H39.1219V31.2304H43.7779V31.2102Z" fill="white"/>
</svg>
