<svg width="56" height="56" viewBox="0 0 56 56" fill="none" xmlns="http://www.w3.org/2000/svg">
<path d="M28.1006 55C42.7634 55 54.5996 43.1633 54.5996 28.5C54.5996 13.8367 42.7634 2 28.1006 2C13.4378 2 1.60153 13.8367 1.60153 28.5C1.42487 43.1633 13.4378 55 28.1006 55Z" fill="#252634"/>
<mask id="mask0_1114_25120" style="mask-type:luminance" maskUnits="userSpaceOnUse" x="1" y="2" width="54" height="53">
<path d="M28.1035 55C42.7668 55 54.6035 43.1633 54.6035 28.5C54.6035 13.8367 42.7668 2 28.1035 2C13.4402 2 1.60349 13.8367 1.60349 28.5C1.42682 43.1633 13.4402 55 28.1035 55Z" fill="white"/>
</mask>
<g mask="url(#mask0_1114_25120)">
<path d="M15.029 16.4865L-8.29102 47.0498L-2.10768 54.1165L15.2057 31.1498L13.439 43.6932L23.1557 47.0498L34.9923 28.1465C34.4623 31.6798 33.579 39.8065 41.3523 42.2798C53.5423 45.9898 64.1423 24.0832 69.089 12.9532L62.0223 9.24316C56.5457 20.7265 48.0657 33.4465 44.709 32.5632C41.3523 31.6798 44.3557 20.9032 46.299 14.0132V13.8365L35.5223 10.1265L22.6257 31.1498L24.3923 19.6665L15.029 16.4865Z" fill="white"/>
</g>
</svg>
