<svg width="240" height="73" viewBox="0 0 240 73" fill="none" xmlns="http://www.w3.org/2000/svg">
<mask id="path-1-outside-1_147_11027" maskUnits="userSpaceOnUse" x="0" y="0" width="240" height="73" fill="black">
<rect fill="white" width="240" height="73"/>
<path d="M1 29C1 13.536 13.536 1 29 1H212C227.464 1 240 13.536 240 29V45C240 60.464 227.464 73 212 73H29C13.536 73 1 60.464 1 45V29Z"/>
</mask>
<path d="M1 29C1 13.536 13.536 1 29 1H212C227.464 1 240 13.536 240 29V45C240 60.464 227.464 73 212 73H29C13.536 73 1 60.464 1 45V29Z" fill="url(#paint0_radial_147_11027)"/>
<path d="M0 29C0 12.9837 12.9837 0 29 0H211C227.016 0 240 12.9837 240 29C240 14.0883 227.464 2 212 2H29C14.0883 2 2 14.0883 2 29H0ZM240 73H1H240ZM29 73C12.9837 73 0 60.0163 0 44V29C0 12.9837 12.9837 0 29 0V2C14.0883 2 2 14.0883 2 29V45C2 60.464 14.0883 73 29 73ZM240 1V73V1Z" fill="url(#paint1_linear_147_11027)" mask="url(#path-1-outside-1_147_11027)"/>
<mask id="path-3-outside-2_147_11027" maskUnits="userSpaceOnUse" x="12" y="12" width="49" height="49" fill="black">
<rect fill="white" x="12" y="12" width="49" height="49"/>
<path d="M13 29C13 20.1634 20.1634 13 29 13H45C53.8366 13 61 20.1634 61 29V45C61 53.8366 53.8366 61 45 61H29C20.1634 61 13 53.8366 13 45V29Z"/>
</mask>
<path d="M13 29C13 20.1634 20.1634 13 29 13H45C53.8366 13 61 20.1634 61 29V45C61 53.8366 53.8366 61 45 61H29C20.1634 61 13 53.8366 13 45V29Z" fill="url(#paint2_radial_147_11027)"/>
<path d="M12 29C12 19.6112 19.6112 12 29 12H44C53.3888 12 61 19.6112 61 29C61 20.7157 53.8366 14 45 14H29C20.7157 14 14 20.7157 14 29H12ZM61 61H13H61ZM29 61C19.6112 61 12 53.3888 12 44V29C12 19.6112 19.6112 12 29 12V14C20.7157 14 14 20.7157 14 29V45C14 53.8366 20.7157 61 29 61ZM61 13V61V13Z" fill="url(#paint3_linear_147_11027)" mask="url(#path-3-outside-2_147_11027)"/>
<path d="M42.7508 36.7012C42.7611 35.899 42.9742 35.1124 43.3703 34.4147C43.7663 33.7169 44.3323 33.1307 45.0158 32.7105C44.5816 32.0904 44.0088 31.5801 43.3429 31.2201C42.677 30.8601 41.9363 30.6603 41.1797 30.6366C39.5657 30.4672 38.001 31.6024 37.1785 31.6024C36.3401 31.6024 35.0738 30.6534 33.7102 30.6815C32.8282 30.71 31.9686 30.9665 31.2151 31.426C30.4617 31.8855 29.8402 32.5323 29.411 33.3034C27.5522 36.5217 28.9387 41.2516 30.7194 43.8531C31.6103 45.127 32.6514 46.5499 34.0138 46.4994C35.347 46.4441 35.8449 45.6493 37.4542 45.6493C39.0485 45.6493 39.5157 46.4994 40.9057 46.4674C42.3362 46.4441 43.2376 45.1878 44.0972 43.9019C44.7373 42.9942 45.2299 41.991 45.5566 40.9295C44.7255 40.578 44.0163 39.9896 43.5173 39.2377C43.0184 38.4858 42.7518 37.6036 42.7508 36.7012Z" fill="white"/>
<path d="M40.1255 28.9253C40.9055 27.989 41.2898 26.7854 41.1967 25.5703C40.0051 25.6955 38.9043 26.265 38.1138 27.1655C37.7272 27.6053 37.4312 28.1171 37.2426 28.6715C37.054 29.2258 36.9764 29.8119 37.0145 30.3963C37.6105 30.4024 38.2002 30.2732 38.7391 30.0184C39.278 29.7636 39.752 29.3899 40.1255 28.9253Z" fill="white"/>
<g opacity="0.3" filter="url(#filter0_f_147_11027)">
<path d="M42.7498 36.4783C42.7602 35.6761 42.9733 34.8895 43.3693 34.1918C43.7653 33.494 44.3314 32.9078 45.0148 32.4876C44.5807 31.8675 44.0079 31.3572 43.3419 30.9972C42.676 30.6372 41.9354 30.4374 41.1787 30.4137C39.5647 30.2443 38 31.3795 37.1775 31.3795C36.3392 31.3795 35.0728 30.4305 33.7092 30.4586C32.8272 30.4871 31.9676 30.7436 31.2142 31.2031C30.4607 31.6626 29.8392 32.3094 29.4101 33.0805C27.5512 36.2988 28.9377 41.0287 30.7184 43.6302C31.6093 44.9041 32.6505 46.327 34.0129 46.2765C35.346 46.2212 35.844 45.4264 37.4532 45.4264C39.0475 45.4264 39.5147 46.2765 40.9047 46.2445C42.3353 46.2212 43.2366 44.9649 44.0962 43.679C44.7363 42.7713 45.2289 41.7681 45.5557 40.7066C44.7245 40.3551 44.0153 39.7667 43.5163 39.0148C43.0174 38.2629 42.7508 37.3807 42.7498 36.4783Z" fill="white"/>
<path d="M40.1245 28.9253C40.9045 27.989 41.2888 26.7854 41.1958 25.5703C40.0041 25.6955 38.9033 26.265 38.1128 27.1655C37.7263 27.6053 37.4302 28.1171 37.2416 28.6715C37.053 29.2258 36.9755 29.8119 37.0135 30.3963C37.6095 30.4024 38.1992 30.2732 38.7381 30.0184C39.277 29.7636 39.751 29.3899 40.1245 28.9253Z" fill="white"/>
</g>
<path d="M86.6304 21.9549C86.6304 23.3031 86.2157 24.3179 85.3875 24.9994C84.6204 25.6283 83.5302 25.9432 82.1181 25.9432C81.418 25.9432 80.8188 25.9135 80.3172 25.8539V18.4878C80.9715 18.3847 81.6764 18.332 82.4377 18.332C83.7828 18.332 84.7966 18.6172 85.4803 19.1876C86.2463 19.8325 86.6304 20.7546 86.6304 21.9549ZM85.3323 21.9882C85.3323 21.1142 85.095 20.4442 84.6204 19.9768C84.1458 19.5107 83.4527 19.277 82.5399 19.277C82.1522 19.277 81.8221 19.3022 81.5484 19.3549V24.9548C81.6999 24.9777 81.9772 24.988 82.3801 24.988C83.3223 24.988 84.0495 24.7326 84.5617 24.2217C85.0739 23.7109 85.3323 22.9663 85.3323 21.9882Z" fill="white" fill-opacity="0.4"/>
<path d="M93.513 23.1329C93.513 23.9633 93.2699 24.6437 92.7835 25.1774C92.2737 25.7261 91.5982 25.9998 90.7547 25.9998C89.9417 25.9998 89.2944 25.7375 88.8116 25.2106C88.3299 24.6849 88.0891 24.0217 88.0891 23.2222C88.0891 22.3861 88.337 21.7 88.8351 21.1674C89.3332 20.6347 90.0028 20.3679 90.8463 20.3679C91.6593 20.3679 92.3124 20.6302 92.807 21.1559C93.2769 21.6667 93.513 22.3265 93.513 23.1329ZM92.2361 23.1718C92.2361 22.6736 92.1256 22.2463 91.906 21.8901C91.6475 21.4594 91.2798 21.2441 90.8017 21.2441C90.3071 21.2441 89.9312 21.4594 89.6727 21.8901C89.4518 22.2463 89.3426 22.6804 89.3426 23.1936C89.3426 23.6918 89.453 24.1191 89.6727 24.4753C89.9394 24.906 90.3106 25.1213 90.7899 25.1213C91.2598 25.1213 91.6287 24.9025 91.8942 24.4638C92.1221 24.1007 92.2361 23.6701 92.2361 23.1718Z" fill="white" fill-opacity="0.4"/>
<path d="M102.743 20.4778L101.01 25.8773H99.8826L99.1648 23.5326C98.9827 22.9473 98.8347 22.3655 98.7196 21.7882H98.6973C98.5904 22.3815 98.4423 22.9622 98.252 23.5326L97.4896 25.8773H96.3489L94.7195 20.4778H95.9847L96.6109 23.0447C96.7624 23.6518 96.8869 24.2302 96.9868 24.7777H97.0091C97.1007 24.3264 97.2523 23.7514 97.4661 23.0562L98.252 20.479H99.2553L100.008 23.0012C100.19 23.6163 100.338 24.2084 100.452 24.7788H100.486C100.57 24.2233 100.696 23.6311 100.862 23.0012L101.534 20.479H102.743V20.4778Z" fill="white" fill-opacity="0.4"/>
<path d="M109.125 25.8781H107.894V22.7855C107.894 21.8325 107.523 21.356 106.778 21.356C106.413 21.356 106.118 21.4866 105.889 21.7489C105.662 22.0112 105.547 22.3204 105.547 22.6744V25.8769H104.316V22.0215C104.316 21.5473 104.3 21.033 104.271 20.4763H105.353L105.411 21.3205H105.445C105.588 21.0582 105.802 20.8417 106.083 20.6688C106.416 20.4672 106.79 20.3652 107.199 20.3652C107.716 20.3652 108.146 20.5279 108.487 20.8543C108.913 21.2541 109.125 21.8508 109.125 22.6434V25.8781Z" fill="white" fill-opacity="0.4"/>
<path d="M112.52 25.8771H111.29V18.0002H112.52V25.8771Z" fill="white" fill-opacity="0.4"/>
<path d="M119.768 23.1329C119.768 23.9633 119.525 24.6437 119.038 25.1774C118.528 25.7261 117.852 25.9998 117.009 25.9998C116.195 25.9998 115.548 25.7375 115.066 25.2106C114.585 24.6849 114.344 24.0217 114.344 23.2222C114.344 22.3861 114.592 21.7 115.09 21.1674C115.588 20.6347 116.258 20.3679 117.1 20.3679C117.914 20.3679 118.566 20.6302 119.062 21.1559C119.532 21.6667 119.768 22.3265 119.768 23.1329ZM118.49 23.1718C118.49 22.6736 118.379 22.2463 118.159 21.8901C117.902 21.4594 117.533 21.2441 117.056 21.2441C116.561 21.2441 116.185 21.4594 115.927 21.8901C115.707 22.2463 115.597 22.6804 115.597 23.1936C115.597 23.6918 115.708 24.1191 115.927 24.4753C116.194 24.906 116.565 25.1213 117.045 25.1213C117.515 25.1213 117.882 24.9025 118.148 24.4638C118.377 24.1007 118.49 23.6701 118.49 23.1718Z" fill="white" fill-opacity="0.4"/>
<path d="M125.727 25.8773H124.622L124.53 25.2553H124.496C124.118 25.7513 123.579 25.9998 122.879 25.9998C122.356 25.9998 121.933 25.836 121.614 25.5107C121.326 25.2152 121.181 24.8475 121.181 24.4111C121.181 23.7514 121.463 23.2486 122.03 22.9003C122.597 22.5521 123.393 22.3815 124.419 22.3895V22.2887C124.419 21.5774 124.036 21.2223 123.269 21.2223C122.722 21.2223 122.241 21.3563 121.825 21.6221L121.575 20.834C122.089 20.5236 122.725 20.3679 123.474 20.3679C124.921 20.3679 125.647 21.1124 125.647 22.6014V24.5898C125.647 25.1293 125.675 25.5588 125.727 25.8773ZM124.449 24.0217V23.189C123.091 23.1661 122.412 23.5292 122.412 24.2771C122.412 24.5589 122.49 24.7696 122.648 24.9105C122.807 25.0514 123.009 25.1213 123.25 25.1213C123.52 25.1213 123.773 25.0377 124.003 24.8716C124.234 24.7044 124.376 24.4925 124.429 24.2325C124.442 24.174 124.449 24.103 124.449 24.0217Z" fill="white" fill-opacity="0.4"/>
<path d="M132.723 25.8771H131.63L131.573 25.0101H131.539C131.19 25.6698 130.595 25.9997 129.76 25.9997C129.093 25.9997 128.537 25.7443 128.097 25.2334C127.656 24.7226 127.436 24.0594 127.436 23.245C127.436 22.371 127.675 21.6632 128.154 21.1226C128.618 20.6186 129.187 20.3666 129.863 20.3666C130.607 20.3666 131.128 20.6106 131.424 21.0996H131.447V18.0002H132.679V24.4225C132.679 24.9482 132.694 25.4327 132.723 25.8771ZM131.447 23.6001V22.6998C131.447 22.544 131.435 22.418 131.413 22.3218C131.344 22.0332 131.194 21.7903 130.968 21.5945C130.739 21.3986 130.463 21.3001 130.144 21.3001C129.685 21.3001 129.325 21.4776 129.061 21.8339C128.799 22.1901 128.666 22.6448 128.666 23.2003C128.666 23.7341 128.792 24.167 129.045 24.5004C129.311 24.8554 129.671 25.033 130.121 25.033C130.525 25.033 130.848 24.8852 131.093 24.5886C131.331 24.3148 131.447 23.9849 131.447 23.6001Z" fill="white" fill-opacity="0.4"/>
<path d="M143.252 23.1329C143.252 23.9633 143.008 24.6437 142.522 25.1774C142.012 25.7261 141.338 25.9998 140.493 25.9998C139.682 25.9998 139.034 25.7375 138.55 25.2106C138.069 24.6849 137.828 24.0217 137.828 23.2222C137.828 22.3861 138.076 21.7 138.574 21.1674C139.072 20.6347 139.741 20.3679 140.586 20.3679C141.398 20.3679 142.052 20.6302 142.546 21.1559C143.016 21.6667 143.252 22.3265 143.252 23.1329ZM141.976 23.1718C141.976 22.6736 141.865 22.2463 141.646 21.8901C141.386 21.4594 141.02 21.2441 140.54 21.2441C140.047 21.2441 139.671 21.4594 139.411 21.8901C139.19 22.2463 139.081 22.6804 139.081 23.1936C139.081 23.6918 139.192 24.1191 139.411 24.4753C139.678 24.906 140.049 25.1213 140.529 25.1213C140.998 25.1213 141.368 24.9025 141.634 24.4638C141.861 24.1007 141.976 23.6701 141.976 23.1718Z" fill="white" fill-opacity="0.4"/>
<path d="M149.873 25.8781H148.643V22.7855C148.643 21.8325 148.271 21.356 147.525 21.356C147.16 21.356 146.865 21.4866 146.637 21.7489C146.409 22.0112 146.295 22.3204 146.295 22.6744V25.8769H145.063V22.0215C145.063 21.5473 145.049 21.033 145.02 20.4763H146.1L146.158 21.3205H146.192C146.337 21.0582 146.55 20.8417 146.83 20.6688C147.165 20.4672 147.537 20.3652 147.947 20.3652C148.463 20.3652 148.893 20.5279 149.235 20.8543C149.661 21.2541 149.873 21.8508 149.873 22.6434V25.8781Z" fill="white" fill-opacity="0.4"/>
<path d="M158.157 21.3768H156.801V23.9998C156.801 24.6664 157.042 24.9998 157.519 24.9998C157.74 24.9998 157.923 24.9814 158.068 24.9436L158.099 25.8542C157.856 25.9436 157.537 25.9882 157.143 25.9882C156.657 25.9882 156.279 25.8439 156.005 25.5553C155.73 25.2666 155.594 24.781 155.594 24.0995V21.3768H154.784V20.4777H155.594V19.4881L156.8 19.133V20.4766H158.156V21.3768H158.157Z" fill="white" fill-opacity="0.4"/>
<path d="M164.675 25.8771H163.443V22.8074C163.443 21.8396 163.071 21.3551 162.328 21.3551C161.757 21.3551 161.367 21.6357 161.153 22.1969C161.117 22.3149 161.095 22.4592 161.095 22.6288V25.876H159.866V18.0002H161.095V21.2543H161.119C161.507 20.6621 162.062 20.3666 162.782 20.3666C163.292 20.3666 163.714 20.5292 164.049 20.8557C164.466 21.2623 164.675 21.8671 164.675 22.6666V25.8771Z" fill="white" fill-opacity="0.4"/>
<path d="M171.399 22.9236C171.399 23.139 171.383 23.3199 171.353 23.4677H167.661C167.677 24.0015 167.854 24.4081 168.195 24.6898C168.508 24.9418 168.911 25.0678 169.404 25.0678C169.951 25.0678 170.449 24.9831 170.897 24.8124L171.09 25.6463C170.565 25.8685 169.947 25.9796 169.232 25.9796C168.374 25.9796 167.699 25.7333 167.21 25.2408C166.719 24.7483 166.476 24.0874 166.476 23.2581C166.476 22.4437 166.702 21.7656 167.159 21.225C167.636 20.6477 168.281 20.3591 169.095 20.3591C169.892 20.3591 170.497 20.6477 170.906 21.225C171.236 21.6832 171.399 22.2501 171.399 22.9236ZM170.224 22.6132C170.234 22.257 170.153 21.95 169.986 21.6912C169.772 21.3579 169.447 21.1906 169.006 21.1906C168.604 21.1906 168.277 21.3533 168.026 21.6797C167.822 21.9397 167.701 22.2501 167.661 22.6132H170.224Z" fill="white" fill-opacity="0.4"/>
<path d="M84.0913 47.0537H77.4247L75.8237 51.781H73L79.3145 34.2913H82.2483L88.5628 51.781H85.6909L84.0913 47.0537ZM78.1151 44.8723H83.3995L80.7945 37.2002H80.7216L78.1151 44.8723Z" fill="white"/>
<path d="M102.2 45.4065C102.2 49.369 100.079 51.9149 96.8787 51.9149C96.068 51.9573 95.2617 51.7706 94.5521 51.376C93.8426 50.9815 93.2585 50.3951 92.8667 49.684H92.8062V55.9999H90.1888V39.03H92.7223V41.151H92.7704C93.1802 40.4433 93.7742 39.86 94.4891 39.463C95.2041 39.0661 96.0133 38.8704 96.8306 38.8968C100.067 38.8967 102.2 41.4549 102.2 45.4065ZM99.5099 45.4065C99.5099 42.8248 98.1758 41.1276 96.1402 41.1276C94.1403 41.1276 92.7952 42.8606 92.7952 45.4065C92.7952 47.9757 94.1403 49.6964 96.1402 49.6964C98.1758 49.6964 99.5099 48.0115 99.5099 45.4065Z" fill="white"/>
<path d="M116.235 45.4065C116.235 49.369 114.113 51.9149 110.913 51.9149C110.102 51.9573 109.296 51.7706 108.586 51.376C107.877 50.9815 107.292 50.3951 106.901 49.684H106.84V55.9999H104.223V39.03H106.756V41.151H106.804C107.214 40.4433 107.808 39.86 108.523 39.463C109.238 39.0661 110.047 38.8704 110.865 38.8968C114.101 38.8967 116.235 41.4549 116.235 45.4065ZM113.544 45.4065C113.544 42.8248 112.21 41.1276 110.174 41.1276C108.174 41.1276 106.829 42.8606 106.829 45.4065C106.829 47.9757 108.174 49.6964 110.174 49.6964C112.21 49.6964 113.544 48.0115 113.544 45.4065Z" fill="white"/>
<path d="M125.51 46.908C125.704 48.6424 127.388 49.7813 129.691 49.7813C131.897 49.7813 133.484 48.6424 133.484 47.0786C133.484 45.7211 132.527 44.9083 130.26 44.3511L127.994 43.8051C124.782 43.0294 123.291 41.5274 123.291 39.0902C123.291 36.0725 125.921 33.9998 129.654 33.9998C133.351 33.9998 135.884 36.0726 135.97 39.0902H133.327C133.169 37.3448 131.726 36.2913 129.618 36.2913C127.51 36.2913 126.067 37.3573 126.067 38.9087C126.067 40.1452 126.988 40.8728 129.243 41.4299L131.169 41.903C134.758 42.7516 136.247 44.1931 136.247 46.7513C136.247 50.0234 133.642 52.0728 129.497 52.0728C125.618 52.0728 123 50.0715 122.83 46.9081L125.51 46.908Z" fill="white"/>
<path d="M141.9 36.0115V39.0293H144.324V41.102H141.9V48.1317C141.9 49.2238 142.385 49.7327 143.451 49.7327C143.739 49.7277 144.026 49.7075 144.312 49.6722V51.7326C143.833 51.8221 143.346 51.8627 142.858 51.8536C140.277 51.8536 139.27 50.8839 139.27 48.4109V41.1019H137.416V39.0291H139.27V36.0114L141.9 36.0115Z" fill="white"/>
<path d="M145.727 45.4059C145.727 41.3939 148.09 38.8727 151.775 38.8727C155.472 38.8727 157.824 41.3939 157.824 45.4059C157.824 49.429 155.484 51.9391 151.775 51.9391C148.067 51.9391 145.727 49.429 145.727 45.4059ZM155.157 45.4059C155.157 42.6537 153.896 41.0294 151.775 41.0294C149.654 41.0294 148.393 42.6661 148.393 45.4059C148.393 48.1691 149.654 49.7811 151.775 49.7811C153.896 49.7811 155.157 48.1691 155.157 45.4059Z" fill="white"/>
<path d="M159.982 39.0301H162.478V41.2004H162.538C162.707 40.5226 163.104 39.9236 163.663 39.504C164.222 39.0845 164.907 38.87 165.606 38.8966C165.907 38.8956 166.208 38.9283 166.502 38.9943V41.4425C166.122 41.3262 165.724 41.2727 165.326 41.2843C164.946 41.2689 164.567 41.3359 164.215 41.4809C163.863 41.6258 163.547 41.8451 163.288 42.1238C163.029 42.4026 162.833 42.7341 162.714 43.0956C162.595 43.4571 162.556 43.84 162.599 44.2181V51.7815H159.982V39.0301Z" fill="white"/>
<path d="M178.571 48.0357C178.283 49.2407 177.568 50.3005 176.558 51.0183C175.548 51.7362 174.313 52.0633 173.08 51.9391C169.37 51.9391 167.068 49.4538 167.068 45.4665C167.068 41.4668 169.383 38.8727 172.97 38.8727C176.498 38.8727 178.716 41.2962 178.716 45.1625V46.0593H169.71V46.2174C169.669 46.6867 169.727 47.1595 169.883 47.6043C170.038 48.0491 170.286 48.4559 170.61 48.7975C170.935 49.1391 171.328 49.4078 171.764 49.5857C172.201 49.7635 172.67 49.8466 173.14 49.8293C173.759 49.8872 174.38 49.744 174.91 49.4208C175.441 49.0977 175.853 48.6119 176.085 48.0357L178.571 48.0357ZM169.723 44.23H176.098C176.121 43.808 176.057 43.3857 175.91 42.9897C175.762 42.5936 175.535 42.2323 175.241 41.9284C174.947 41.6245 174.594 41.3846 174.203 41.2238C173.812 41.0629 173.392 40.9845 172.97 40.9936C172.544 40.9911 172.121 41.073 171.727 41.2346C171.332 41.3962 170.974 41.6343 170.672 41.9352C170.37 42.2361 170.131 42.5938 169.968 42.9876C169.805 43.3815 169.721 43.8037 169.723 44.23Z" fill="white"/>
<defs>
<filter id="filter0_f_147_11027" x="21.5273" y="18.5703" width="31.0283" height="34.7075" filterUnits="userSpaceOnUse" color-interpolation-filters="sRGB">
<feFlood flood-opacity="0" result="BackgroundImageFix"/>
<feBlend mode="normal" in="SourceGraphic" in2="BackgroundImageFix" result="shape"/>
<feGaussianBlur stdDeviation="3.5" result="effect1_foregroundBlur_147_11027"/>
</filter>
<radialGradient id="paint0_radial_147_11027" cx="0" cy="0" r="1" gradientUnits="userSpaceOnUse" gradientTransform="translate(49.5009 10.7008) scale(196.299 91.1557)">
<stop stop-color="#1D1A24"/>
<stop offset="0.5" stop-color="#1C1925" stop-opacity="0.83"/>
<stop offset="0.996483" stop-color="#1C1925" stop-opacity="0.46"/>
</radialGradient>
<linearGradient id="paint1_linear_147_11027" x1="-29.1348" y1="42.9211" x2="20.9251" y2="-47.6222" gradientUnits="userSpaceOnUse">
<stop offset="0.0254865" stop-color="#2D2939"/>
<stop offset="0.514554" stop-color="#322D40"/>
<stop offset="1" stop-color="#2D2939"/>
</linearGradient>
<radialGradient id="paint2_radial_147_11027" cx="0" cy="0" r="1" gradientUnits="userSpaceOnUse" gradientTransform="translate(20.1111 16.5556) rotate(50.3073) scale(57.759 45.0709)">
<stop stop-color="#262231"/>
<stop offset="1" stop-color="#262231" stop-opacity="0"/>
</radialGradient>
<linearGradient id="paint3_linear_147_11027" x1="6.94783" y1="40.9474" x2="40.0608" y2="22.9048" gradientUnits="userSpaceOnUse">
<stop offset="0.0254865" stop-color="#2D2939"/>
<stop offset="0.514554" stop-color="#322D40"/>
<stop offset="1" stop-color="#2D2939"/>
</linearGradient>
</defs>
</svg>
