<svg width="211" height="73" viewBox="0 0 211 73" fill="none" xmlns="http://www.w3.org/2000/svg">
<mask id="path-1-outside-1_102_13836" maskUnits="userSpaceOnUse" x="0" y="0" width="211" height="73" fill="black">
<rect fill="white" width="211" height="73"/>
<path d="M1 29C1 13.536 13.536 1 29 1H182.716C198.18 1 210.716 13.536 210.716 29V45C210.716 60.464 198.18 73 182.716 73H29C13.536 73 1 60.464 1 45V29Z"/>
</mask>
<path d="M1 29C1 13.536 13.536 1 29 1H182.716C198.18 1 210.716 13.536 210.716 29V45C210.716 60.464 198.18 73 182.716 73H29C13.536 73 1 60.464 1 45V29Z" fill="url(#paint0_radial_102_13836)"/>
<path d="M0 29C0 12.9837 12.9837 0 29 0H181.716C197.733 0 210.716 12.9837 210.716 29C210.716 14.0883 198.18 2 182.716 2H29C14.0883 2 2 14.0883 2 29H0ZM210.716 73H1H210.716ZM29 73C12.9837 73 0 60.0163 0 44V29C0 12.9837 12.9837 0 29 0V2C14.0883 2 2 14.0883 2 29V45C2 60.464 14.0883 73 29 73ZM210.716 1V73V1Z" fill="url(#paint1_linear_102_13836)" mask="url(#path-1-outside-1_102_13836)"/>
<mask id="path-3-outside-2_102_13836" maskUnits="userSpaceOnUse" x="12" y="12" width="49" height="49" fill="black">
<rect fill="white" x="12" y="12" width="49" height="49"/>
<path d="M13 29C13 20.1634 20.1634 13 29 13H45C53.8366 13 61 20.1634 61 29V45C61 53.8366 53.8366 61 45 61H29C20.1634 61 13 53.8366 13 45V29Z"/>
</mask>
<path d="M13 29C13 20.1634 20.1634 13 29 13H45C53.8366 13 61 20.1634 61 29V45C61 53.8366 53.8366 61 45 61H29C20.1634 61 13 53.8366 13 45V29Z" fill="url(#paint2_radial_102_13836)"/>
<path d="M12 29C12 19.6112 19.6112 12 29 12H44C53.3888 12 61 19.6112 61 29C61 20.7157 53.8366 14 45 14H29C20.7157 14 14 20.7157 14 29H12ZM61 61H13H61ZM29 61C19.6112 61 12 53.3888 12 44V29C12 19.6112 19.6112 12 29 12V14C20.7157 14 14 20.7157 14 29V45C14 53.8366 20.7157 61 29 61ZM61 13V61V13Z" fill="url(#paint3_linear_102_13836)" mask="url(#path-3-outside-2_102_13836)"/>
<path d="M42.7498 36.701C42.7602 35.8988 42.9733 35.1122 43.3693 34.4144C43.7653 33.7167 44.3314 33.1304 45.0148 32.7102C44.5807 32.0901 44.0079 31.5798 43.3419 31.2198C42.676 30.8598 41.9354 30.6601 41.1787 30.6364C39.5647 30.467 38 31.6022 37.1775 31.6022C36.3392 31.6022 35.0728 30.6532 33.7092 30.6813C32.8272 30.7097 31.9676 30.9662 31.2142 31.4257C30.4607 31.8852 29.8392 32.532 29.4101 33.3032C27.5512 36.5215 28.9377 41.2514 30.7184 43.8528C31.6093 45.1267 32.6505 46.5497 34.0129 46.4992C35.346 46.4439 35.844 45.6491 37.4532 45.6491C39.0475 45.6491 39.5147 46.4992 40.9047 46.4671C42.3353 46.4439 43.2366 45.1876 44.0962 43.9017C44.7363 42.994 45.2289 41.9908 45.5557 40.9293C44.7245 40.5778 44.0153 39.9894 43.5163 39.2375C43.0174 38.4855 42.7508 37.6034 42.7498 36.701Z" fill="white"/>
<path d="M40.1243 28.9253C40.9043 27.989 41.2886 26.7854 41.1956 25.5703C40.0039 25.6955 38.9031 26.265 38.1126 27.1655C37.7261 27.6053 37.43 28.1171 37.2414 28.6715C37.0528 29.2258 36.9753 29.8119 37.0133 30.3963C37.6094 30.4024 38.199 30.2732 38.7379 30.0184C39.2768 29.7636 39.7508 29.3899 40.1243 28.9253Z" fill="white"/>
<g opacity="0.3" filter="url(#filter0_f_102_13836)">
<path d="M42.7498 36.4783C42.7602 35.6761 42.9733 34.8895 43.3693 34.1918C43.7653 33.494 44.3314 32.9078 45.0148 32.4876C44.5807 31.8675 44.0079 31.3572 43.3419 30.9972C42.676 30.6372 41.9354 30.4374 41.1787 30.4137C39.5647 30.2443 38 31.3795 37.1775 31.3795C36.3392 31.3795 35.0728 30.4305 33.7092 30.4586C32.8272 30.4871 31.9676 30.7436 31.2142 31.2031C30.4607 31.6626 29.8392 32.3094 29.4101 33.0805C27.5512 36.2988 28.9377 41.0287 30.7184 43.6302C31.6093 44.9041 32.6505 46.327 34.0129 46.2765C35.346 46.2212 35.844 45.4264 37.4532 45.4264C39.0475 45.4264 39.5147 46.2765 40.9047 46.2445C42.3353 46.2212 43.2366 44.9649 44.0962 43.679C44.7363 42.7713 45.2289 41.7681 45.5557 40.7066C44.7245 40.3551 44.0153 39.7667 43.5163 39.0148C43.0174 38.2629 42.7508 37.3807 42.7498 36.4783Z" fill="white"/>
<path d="M40.1243 28.9253C40.9043 27.989 41.2886 26.7854 41.1956 25.5703C40.0039 25.6955 38.9031 26.265 38.1126 27.1655C37.7261 27.6053 37.43 28.1171 37.2414 28.6715C37.0528 29.2258 36.9753 29.8119 37.0133 30.3963C37.6094 30.4024 38.199 30.2732 38.7379 30.0184C39.2768 29.7636 39.7508 29.3899 40.1243 28.9253Z" fill="white"/>
</g>
<path d="M86.6296 21.9549C86.6296 23.3031 86.215 24.3179 85.3867 24.9994C84.6196 25.6283 83.5294 25.9432 82.1173 25.9432C81.4172 25.9432 80.818 25.9135 80.3164 25.8539V18.4878C80.9708 18.3847 81.6756 18.332 82.4369 18.332C83.782 18.332 84.7958 18.6172 85.4795 19.1876C86.2455 19.8325 86.6296 20.7546 86.6296 21.9549ZM85.3315 21.9882C85.3315 21.1142 85.0942 20.4442 84.6196 19.9768C84.145 19.5107 83.4519 19.277 82.5391 19.277C82.1514 19.277 81.8213 19.3022 81.5476 19.3549V24.9548C81.6991 24.9777 81.9764 24.988 82.3793 24.988C83.3215 24.988 84.0487 24.7326 84.5609 24.2217C85.0731 23.7109 85.3315 22.9663 85.3315 21.9882Z" fill="white" fill-opacity="0.4"/>
<path d="M93.5118 23.1322C93.5118 23.9626 93.2686 24.643 92.7823 25.1767C92.2724 25.7254 91.5969 25.9991 90.7535 25.9991C89.9405 25.9991 89.2932 25.7368 88.8104 25.21C88.3287 24.6842 88.0879 24.021 88.0879 23.2215C88.0879 22.3854 88.3358 21.6993 88.8339 21.1667C89.332 20.6341 90.0016 20.3672 90.8451 20.3672C91.658 20.3672 92.3112 20.6295 92.8058 21.1552C93.2757 21.6661 93.5118 22.3258 93.5118 23.1322ZM92.2348 23.1711C92.2348 22.6729 92.1244 22.2457 91.9047 21.8894C91.6463 21.4588 91.2786 21.2434 90.8004 21.2434C90.3059 21.2434 89.9299 21.4588 89.6715 21.8894C89.4506 22.2457 89.3414 22.6798 89.3414 23.1929C89.3414 23.6912 89.4518 24.1184 89.6715 24.4746C89.9382 24.9053 90.3094 25.1206 90.7887 25.1206C91.2586 25.1206 91.6275 24.9018 91.893 24.4632C92.1209 24.1001 92.2348 23.6694 92.2348 23.1711Z" fill="white" fill-opacity="0.4"/>
<path d="M102.742 20.4785L101.01 25.878H99.8819L99.1641 23.5333C98.982 22.948 98.834 22.3661 98.7189 21.7889H98.6965C98.5896 22.3822 98.4416 22.9629 98.2513 23.5333L97.4889 25.878H96.3482L94.7188 20.4785H95.984L96.6101 23.0454C96.7617 23.6524 96.8862 24.2309 96.9861 24.7784H97.0084C97.1 24.3271 97.2516 23.7521 97.4654 23.0568L98.2513 20.4797H99.2545L100.008 23.0018C100.19 23.6169 100.338 24.2091 100.452 24.7795H100.486C100.569 24.224 100.695 23.6318 100.862 23.0018L101.534 20.4797H102.742V20.4785Z" fill="white" fill-opacity="0.4"/>
<path d="M109.124 25.8781H107.893V22.7855C107.893 21.8325 107.521 21.356 106.776 21.356C106.411 21.356 106.116 21.4866 105.887 21.7489C105.66 22.0112 105.545 22.3204 105.545 22.6744V25.8769H104.314V22.0215C104.314 21.5473 104.299 21.033 104.27 20.4763H105.351L105.409 21.3205H105.443C105.586 21.0582 105.8 20.8417 106.081 20.6688C106.415 20.4672 106.788 20.3652 107.197 20.3652C107.714 20.3652 108.144 20.5279 108.486 20.8543C108.911 21.2541 109.124 21.8508 109.124 22.6434V25.8781Z" fill="white" fill-opacity="0.4"/>
<path d="M112.519 25.8769H111.289V18H112.519V25.8769Z" fill="white" fill-opacity="0.4"/>
<path d="M119.768 23.1322C119.768 23.9626 119.525 24.643 119.038 25.1767C118.528 25.7254 117.852 25.9991 117.009 25.9991C116.195 25.9991 115.548 25.7368 115.066 25.21C114.585 24.6842 114.344 24.021 114.344 23.2215C114.344 22.3854 114.592 21.6993 115.09 21.1667C115.588 20.6341 116.257 20.3672 117.1 20.3672C117.914 20.3672 118.566 20.6295 119.062 21.1552C119.532 21.6661 119.768 22.3258 119.768 23.1322ZM118.49 23.1711C118.49 22.6729 118.379 22.2457 118.159 21.8894C117.902 21.4588 117.533 21.2434 117.056 21.2434C116.561 21.2434 116.185 21.4588 115.927 21.8894C115.706 22.2457 115.597 22.6798 115.597 23.1929C115.597 23.6912 115.708 24.1184 115.927 24.4746C116.194 24.9053 116.565 25.1206 117.045 25.1206C117.514 25.1206 117.882 24.9018 118.148 24.4632C118.377 24.1001 118.49 23.6694 118.49 23.1711Z" fill="white" fill-opacity="0.4"/>
<path d="M125.726 25.8766H124.621L124.529 25.2546H124.495C124.117 25.7506 123.577 25.9991 122.877 25.9991C122.354 25.9991 121.932 25.8353 121.613 25.5101C121.324 25.2145 121.18 24.8469 121.18 24.4105C121.18 23.7507 121.462 23.2479 122.029 22.8997C122.595 22.5515 123.392 22.3808 124.417 22.3888V22.288C124.417 21.5767 124.034 21.2217 123.267 21.2217C122.721 21.2217 122.239 21.3557 121.823 21.6214L121.573 20.8334C122.088 20.523 122.723 20.3672 123.473 20.3672C124.92 20.3672 125.646 21.1117 125.646 22.6007V24.5891C125.646 25.1286 125.673 25.5582 125.726 25.8766ZM124.448 24.021V23.1883C123.09 23.1654 122.411 23.5285 122.411 24.2765C122.411 24.5582 122.488 24.769 122.647 24.9099C122.806 25.0507 123.008 25.1206 123.248 25.1206C123.519 25.1206 123.771 25.037 124.001 24.8709C124.233 24.7037 124.375 24.4918 124.428 24.2318C124.441 24.1734 124.448 24.1024 124.448 24.021Z" fill="white" fill-opacity="0.4"/>
<path d="M132.722 25.8769H131.629L131.572 25.0099H131.538C131.189 25.6696 130.595 25.9995 129.759 25.9995C129.092 25.9995 128.536 25.7441 128.096 25.2332C127.655 24.7224 127.436 24.0592 127.436 23.2448C127.436 22.3709 127.674 21.663 128.153 21.1224C128.617 20.6184 129.186 20.3664 129.863 20.3664C130.606 20.3664 131.127 20.6104 131.423 21.0995H131.446V18H132.679V24.4223C132.679 24.948 132.693 25.4325 132.722 25.8769ZM131.446 23.5999V22.6996C131.446 22.5438 131.434 22.4178 131.412 22.3216C131.343 22.033 131.194 21.7901 130.967 21.5943C130.738 21.3984 130.462 21.2999 130.143 21.2999C129.684 21.2999 129.325 21.4774 129.06 21.8337C128.798 22.1899 128.666 22.6446 128.666 23.2001C128.666 23.7339 128.791 24.1669 129.044 24.5002C129.31 24.8552 129.67 25.0328 130.12 25.0328C130.524 25.0328 130.847 24.885 131.093 24.5884C131.33 24.3146 131.446 23.9847 131.446 23.5999Z" fill="white" fill-opacity="0.4"/>
<path d="M143.25 23.1322C143.25 23.9626 143.007 24.643 142.521 25.1767C142.011 25.7254 141.336 25.9991 140.492 25.9991C139.68 25.9991 139.033 25.7368 138.549 25.21C138.067 24.6842 137.826 24.021 137.826 23.2215C137.826 22.3854 138.074 21.6993 138.572 21.1667C139.07 20.6341 139.74 20.3672 140.585 20.3672C141.396 20.3672 142.051 20.6295 142.544 21.1552C143.014 21.6661 143.25 22.3258 143.25 23.1322ZM141.974 23.1711C141.974 22.6729 141.864 22.2457 141.644 21.8894C141.385 21.4588 141.018 21.2434 140.539 21.2434C140.045 21.2434 139.669 21.4588 139.41 21.8894C139.189 22.2457 139.08 22.6798 139.08 23.1929C139.08 23.6912 139.19 24.1184 139.41 24.4746C139.676 24.9053 140.048 25.1206 140.527 25.1206C140.997 25.1206 141.367 24.9018 141.632 24.4632C141.859 24.1001 141.974 23.6694 141.974 23.1711Z" fill="white" fill-opacity="0.4"/>
<path d="M149.873 25.8781H148.643V22.7855C148.643 21.8325 148.271 21.356 147.525 21.356C147.16 21.356 146.865 21.4866 146.637 21.7489C146.409 22.0112 146.295 22.3204 146.295 22.6744V25.8769H145.063V22.0215C145.063 21.5473 145.049 21.033 145.02 20.4763H146.1L146.158 21.3205H146.192C146.336 21.0582 146.55 20.8417 146.83 20.6688C147.165 20.4672 147.537 20.3652 147.947 20.3652C148.463 20.3652 148.893 20.5279 149.235 20.8543C149.661 21.2541 149.873 21.8508 149.873 22.6434V25.8781Z" fill="white" fill-opacity="0.4"/>
<path d="M158.156 21.3767H156.8V23.9996C156.8 24.6663 157.041 24.9996 157.518 24.9996C157.739 24.9996 157.922 24.9812 158.067 24.9435L158.098 25.854C157.855 25.9434 157.536 25.9881 157.142 25.9881C156.656 25.9881 156.278 25.8437 156.004 25.5551C155.729 25.2665 155.593 24.7808 155.593 24.0993V21.3767H154.783V20.4775H155.593V19.4879L156.799 19.1328V20.4764H158.155V21.3767H158.156Z" fill="white" fill-opacity="0.4"/>
<path d="M164.675 25.8769H163.442V22.8073C163.442 21.8394 163.071 21.3549 162.328 21.3549C161.757 21.3549 161.367 21.6355 161.153 22.1968C161.116 22.3147 161.095 22.4591 161.095 22.6286V25.8758H159.865V18H161.095V21.2541H161.119C161.506 20.6619 162.062 20.3664 162.782 20.3664C163.292 20.3664 163.714 20.5291 164.049 20.8555C164.466 21.2621 164.675 21.8669 164.675 22.6664V25.8769Z" fill="white" fill-opacity="0.4"/>
<path d="M171.398 22.9239C171.398 23.1393 171.382 23.3202 171.352 23.468H167.66C167.676 24.0018 167.853 24.4084 168.194 24.6902C168.507 24.9421 168.91 25.0681 169.403 25.0681C169.95 25.0681 170.448 24.9834 170.896 24.8127L171.089 25.6466C170.564 25.8688 169.946 25.9799 169.231 25.9799C168.373 25.9799 167.698 25.7336 167.209 25.2411C166.718 24.7486 166.475 24.0877 166.475 23.2584C166.475 22.444 166.701 21.7659 167.158 21.2253C167.635 20.648 168.28 20.3594 169.094 20.3594C169.891 20.3594 170.496 20.648 170.905 21.2253C171.235 21.6835 171.398 22.2504 171.398 22.9239ZM170.223 22.6135C170.233 22.2573 170.152 21.9503 169.985 21.6915C169.771 21.3582 169.446 21.1909 169.005 21.1909C168.603 21.1909 168.276 21.3536 168.025 21.68C167.821 21.94 167.7 22.2504 167.66 22.6135H170.223Z" fill="white" fill-opacity="0.4"/>
<path d="M84.0913 47.0534H77.4247L75.8237 51.7808H73L79.3145 34.291H82.2483L88.5628 51.7807H85.6909L84.0913 47.0534ZM78.1151 44.872H83.3995L80.7945 37.2H80.7216L78.1151 44.872Z" fill="white"/>
<path d="M102.201 45.4066C102.201 49.3692 100.08 51.915 96.8795 51.915C96.0687 51.9575 95.2624 51.7707 94.5528 51.3761C93.8433 50.9816 93.2592 50.3952 92.8674 49.6841H92.8069V56H90.1895V39.0302H92.723V41.1511H92.7711C93.1809 40.4435 93.7749 39.8601 94.4898 39.4632C95.2048 39.0662 96.014 38.8705 96.8313 38.8969C100.068 38.8968 102.201 41.455 102.201 45.4066ZM99.5106 45.4066C99.5106 42.8249 98.1765 41.1277 96.1409 41.1277C94.141 41.1277 92.7959 42.8607 92.7959 45.4066C92.7959 47.9759 94.141 49.6965 96.1409 49.6965C98.1765 49.6965 99.5106 48.0116 99.5106 45.4066Z" fill="white"/>
<path d="M116.235 45.4066C116.235 49.3692 114.113 51.915 110.913 51.915C110.102 51.9575 109.296 51.7707 108.586 51.3761C107.876 50.9816 107.292 50.3952 106.901 49.6841H106.84V56H104.223V39.0302H106.756V41.1511H106.804C107.214 40.4435 107.808 39.8601 108.523 39.4632C109.238 39.0662 110.047 38.8705 110.865 38.8969C114.101 38.8968 116.235 41.455 116.235 45.4066ZM113.544 45.4066C113.544 42.8249 112.21 41.1277 110.174 41.1277C108.174 41.1277 106.829 42.8607 106.829 45.4066C106.829 47.9759 108.174 49.6965 110.174 49.6965C112.21 49.6965 113.544 48.0116 113.544 45.4066Z" fill="white"/>
<path d="M125.509 46.9082C125.703 48.6426 127.388 49.7815 129.691 49.7815C131.897 49.7815 133.484 48.6426 133.484 47.0788C133.484 45.7213 132.527 44.9084 130.26 44.3513L127.993 43.8053C124.782 43.0296 123.291 41.5276 123.291 39.0904C123.291 36.0727 125.921 34 129.653 34C133.351 34 135.884 36.0727 135.969 39.0904H133.327C133.169 37.345 131.726 36.2915 129.618 36.2915C127.509 36.2915 126.066 37.3574 126.066 38.9089C126.066 40.1454 126.988 40.873 129.242 41.43L131.169 41.9032C134.758 42.7518 136.247 44.1932 136.247 46.7515C136.247 50.0236 133.642 52.073 129.497 52.073C125.618 52.073 122.999 50.0717 122.83 46.9083L125.509 46.9082Z" fill="white"/>
<path d="M141.9 36.0118V39.0296H144.325V41.1023H141.9V48.132C141.9 49.2241 142.385 49.733 143.451 49.733C143.739 49.728 144.027 49.7078 144.312 49.6725V51.7329C143.833 51.8224 143.346 51.863 142.859 51.8539C140.277 51.8539 139.27 50.8842 139.27 48.4113V41.1022H137.416V39.0295H139.27V36.0117L141.9 36.0118Z" fill="white"/>
<path d="M145.727 45.4062C145.727 41.3942 148.09 38.873 151.774 38.873C155.471 38.873 157.823 41.3942 157.823 45.4062C157.823 49.4293 155.484 51.9394 151.774 51.9394C148.066 51.9394 145.727 49.4293 145.727 45.4062ZM155.156 45.4062C155.156 42.654 153.895 41.0297 151.774 41.0297C149.653 41.0297 148.392 42.6664 148.392 45.4062C148.392 48.1694 149.653 49.7815 151.774 49.7815C153.895 49.7815 155.156 48.1694 155.156 45.4062Z" fill="white"/>
<path d="M159.982 39.0302H162.479V41.2006H162.539C162.708 40.5227 163.105 39.9237 163.664 39.5041C164.222 39.0846 164.908 38.8701 165.606 38.8967C165.908 38.8957 166.209 38.9284 166.503 38.9944V41.4426C166.122 41.3263 165.725 41.2728 165.327 41.2845C164.947 41.269 164.568 41.3361 164.216 41.481C163.864 41.6259 163.548 41.8452 163.289 42.124C163.029 42.4027 162.834 42.7342 162.715 43.0957C162.596 43.4572 162.557 43.8402 162.6 44.2183V51.7817H159.982V39.0302Z" fill="white"/>
<path d="M178.571 48.036C178.283 49.241 177.568 50.3008 176.558 51.0186C175.549 51.7365 174.313 52.0636 173.08 51.9394C169.371 51.9394 167.068 49.4541 167.068 45.4668C167.068 41.4671 169.383 38.873 172.97 38.873C176.498 38.873 178.717 41.2965 178.717 45.1628V46.0596H169.711V46.2177C169.669 46.687 169.728 47.1598 169.883 47.6046C170.038 48.0494 170.286 48.4562 170.611 48.7978C170.935 49.1394 171.328 49.4081 171.765 49.586C172.201 49.7638 172.67 49.8469 173.141 49.8296C173.759 49.8875 174.38 49.7443 174.911 49.4211C175.441 49.098 175.853 48.6122 176.086 48.036L178.571 48.036ZM169.723 44.2303H176.098C176.121 43.8083 176.057 43.386 175.91 42.99C175.763 42.5939 175.535 42.2326 175.241 41.9287C174.948 41.6248 174.594 41.3849 174.203 41.2241C173.813 41.0632 173.393 40.9848 172.97 40.9939C172.544 40.9914 172.122 41.0733 171.727 41.2349C171.333 41.3965 170.974 41.6346 170.672 41.9355C170.37 42.2364 170.131 42.5941 169.968 42.9879C169.805 43.3818 169.722 43.804 169.723 44.2303Z" fill="white"/>
<defs>
<filter id="filter0_f_102_13836" x="21.5273" y="18.5703" width="31.0273" height="34.707" filterUnits="userSpaceOnUse" color-interpolation-filters="sRGB">
<feFlood flood-opacity="0" result="BackgroundImageFix"/>
<feBlend mode="normal" in="SourceGraphic" in2="BackgroundImageFix" result="shape"/>
<feGaussianBlur stdDeviation="3.5" result="effect1_foregroundBlur_102_13836"/>
</filter>
<radialGradient id="paint0_radial_102_13836" cx="0" cy="0" r="1" gradientUnits="userSpaceOnUse" gradientTransform="translate(43.5583 10.7008) scale(172.248 91.1557)">
<stop stop-color="#1D1A24"/>
<stop offset="0.5" stop-color="#1C1925" stop-opacity="0.83"/>
<stop offset="0.996483" stop-color="#1C1925" stop-opacity="0.46"/>
</radialGradient>
<linearGradient id="paint1_linear_102_13836" x1="-25.4425" y1="42.9211" x2="27.8779" y2="-41.7031" gradientUnits="userSpaceOnUse">
<stop offset="0.0254865" stop-color="#2D2939"/>
<stop offset="0.514554" stop-color="#322D40"/>
<stop offset="1" stop-color="#2D2939"/>
</linearGradient>
<radialGradient id="paint2_radial_102_13836" cx="0" cy="0" r="1" gradientUnits="userSpaceOnUse" gradientTransform="translate(20.1111 16.5556) rotate(50.3073) scale(57.759 45.0709)">
<stop stop-color="#262231"/>
<stop offset="1" stop-color="#262231" stop-opacity="0"/>
</radialGradient>
<linearGradient id="paint3_linear_102_13836" x1="6.94783" y1="40.9474" x2="40.0608" y2="22.9048" gradientUnits="userSpaceOnUse">
<stop offset="0.0254865" stop-color="#2D2939"/>
<stop offset="0.514554" stop-color="#322D40"/>
<stop offset="1" stop-color="#2D2939"/>
</linearGradient>
</defs>
</svg>
