<svg width="16" height="16" viewBox="0 0 16 16" fill="none" xmlns="http://www.w3.org/2000/svg">
<g id="eye icon">
<path id="Vector" d="M2.18327 10.1971C1.61665 9.46094 1.33334 9.09288 1.33334 7.99996C1.33334 6.90704 1.61665 6.53898 2.18327 5.80285C3.31465 4.333 5.21209 2.66663 8.00001 2.66663C10.7879 2.66663 12.6854 4.333 13.8167 5.80285C14.3834 6.53898 14.6667 6.90704 14.6667 7.99996C14.6667 9.09288 14.3834 9.46094 13.8167 10.1971C12.6854 11.6669 10.7879 13.3333 8.00001 13.3333C5.21209 13.3333 3.31465 11.6669 2.18327 10.1971Z" stroke="#3C445E" stroke-width="1.5"/>
<path id="Vector_2" d="M10 8C10 9.10457 9.10457 10 8 10C6.89543 10 6 9.10457 6 8C6 6.89543 6.89543 6 8 6C9.10457 6 10 6.89543 10 8Z" stroke="#3C445E" stroke-width="1.5"/>
</g>
</svg>
