<svg width="158" height="48" viewBox="0 0 158 48" fill="none" xmlns="http://www.w3.org/2000/svg">
<rect x="0.899536" width="156.201" height="48" rx="24" fill="#1D1A24"/>
<path d="M34.1515 15C28.8939 15 24.8995 18.7787 24.8995 24.1667C24.8995 29.5546 28.8939 33.3333 34.1515 33.3333C36.2888 33.3333 38.2174 32.7088 39.7538 31.6056V28.3333C38.5464 30.0311 36.5545 31.059 34.1515 31.059C30.1517 31.059 27.2911 28.2114 27.2911 24.1667C27.2911 20.1219 30.1517 17.2743 34.1515 17.2743C36.5545 17.2743 38.5464 18.3022 39.7538 20V16.7278C38.2174 15.6245 36.2888 15 34.1515 15Z" fill="white"/>
<path fill-rule="evenodd" clip-rule="evenodd" d="M60.7809 24.1667C60.7809 18.7787 56.7865 15 51.5289 15C46.2714 15 42.277 18.7787 42.277 24.1667C42.277 29.5546 46.2714 33.3333 51.5289 33.3333C56.7865 33.3333 60.7809 29.5546 60.7809 24.1667ZM44.6685 24.1667C44.6685 20.1219 47.5291 17.2743 51.5289 17.2743C55.5287 17.2743 58.3893 20.1219 58.3893 24.1667C58.3893 28.2114 55.5287 31.059 51.5289 31.059C47.5291 31.059 44.6685 28.2114 44.6685 24.1667Z" fill="white"/>
<path d="M72.556 15C67.2985 15 63.3041 18.7787 63.3041 24.1667C63.3041 29.5546 67.2985 33.3333 72.556 33.3333C74.6934 33.3333 76.622 32.7088 78.1583 31.6056V28.3333C76.9509 30.0311 74.9591 31.059 72.556 31.059C68.5562 31.059 65.6956 28.2114 65.6956 24.1667C65.6956 20.1219 68.5562 17.2743 72.556 17.2743C74.9591 17.2743 76.9509 18.3022 78.1583 20V16.7278C76.622 15.6245 74.6934 15 72.556 15Z" fill="white"/>
<ellipse cx="90.7747" cy="24" rx="10.093" ry="10" fill="url(#paint0_linear_601_1790)"/>
<ellipse cx="104.232" cy="24" rx="10.093" ry="10" transform="rotate(-180 104.232 24)" fill="url(#paint1_linear_601_1790)"/>
<path fill-rule="evenodd" clip-rule="evenodd" d="M133.1 34V14.8333H130.724V28.1667L116.848 14V33.1667H119.225L119.225 19.8333L133.1 34Z" fill="white"/>
<defs>
<linearGradient id="paint0_linear_601_1790" x1="90.7747" y1="34" x2="90.7747" y2="14" gradientUnits="userSpaceOnUse">
<stop stop-color="#A917DC"/>
<stop offset="1" stop-color="#A917DC" stop-opacity="0"/>
</linearGradient>
<linearGradient id="paint1_linear_601_1790" x1="104.232" y1="34" x2="104.232" y2="14" gradientUnits="userSpaceOnUse">
<stop stop-color="#C450ED"/>
<stop offset="1" stop-color="#C450ED" stop-opacity="0"/>
</linearGradient>
</defs>
</svg>
