<svg width="40" height="40" viewBox="0 0 40 40" fill="none" xmlns="http://www.w3.org/2000/svg">
<path d="M31.4045 18.4829C32.8652 18.9669 32.8652 21.0331 31.4045 21.5171L24.74 23.7256C24.2606 23.8845 23.8845 24.2606 23.7256 24.74L21.5171 31.4045C21.0331 32.8652 18.9669 32.8652 18.4829 31.4045L16.2744 24.74C16.1155 24.2606 15.7394 23.8845 15.26 23.7256L8.59552 21.5171C7.13483 21.0331 7.13483 18.9669 8.59551 18.4829L15.26 16.2744C15.7394 16.1155 16.1155 15.7394 16.2744 15.26L18.4829 8.59551C18.9669 7.13483 21.0331 7.13483 21.5171 8.59551L23.7256 15.26C23.8845 15.7394 24.2606 16.1155 24.74 16.2744L31.4045 18.4829Z" fill="white"/>
<path opacity="0.2" d="M28.9165 9.13399C29.1177 8.622 29.8396 8.622 30.0408 9.13399L30.2369 9.63317C30.2983 9.78948 30.4216 9.91321 30.5773 9.97486L31.0747 10.1717C31.5848 10.3737 31.5848 11.0982 31.0747 11.3002L30.5773 11.497C30.4216 11.5587 30.2983 11.6824 30.2369 11.8387L30.0408 12.3379C29.8396 12.8499 29.1177 12.8499 28.9165 12.3379L28.7203 11.8387C28.6589 11.6824 28.5356 11.5587 28.3799 11.497L27.8826 11.3002C27.3725 11.0982 27.3725 10.3737 27.8826 10.1717L28.3799 9.97486C28.5356 9.91321 28.6589 9.78948 28.7203 9.63317L28.9165 9.13399Z" fill="white"/>
<path opacity="0.7" d="M10.125 26.634C10.3262 26.122 11.0481 26.122 11.2493 26.634L11.7873 28.0031C11.8487 28.1594 11.972 28.2831 12.1277 28.3448L13.4918 28.8848C14.0019 29.0867 14.0019 29.8113 13.4918 30.0132L12.1277 30.5531C11.972 30.6148 11.8487 30.7385 11.7873 30.8948L11.2493 32.2639C11.0481 32.7759 10.3262 32.7759 10.125 32.2639L9.58706 30.8948C9.52564 30.7385 9.40237 30.6148 9.24663 30.5531L7.88257 30.0132C7.37248 29.8113 7.37248 29.0867 7.88257 28.8848L9.24663 28.3448C9.40237 28.2831 9.52564 28.1594 9.58706 28.0031L10.125 26.634Z" fill="white"/>
</svg>
