<svg width="24" height="24" viewBox="0 0 24 24" fill="none" xmlns="http://www.w3.org/2000/svg">
<rect width="24" height="24" rx="6" fill="url(#paint0_linear_1255_11174)"/>
<rect width="24" height="24" rx="6" fill="url(#paint1_linear_1255_11174)"/>
<path d="M9.95184 6.00001C9.52198 5.99994 7.87024 5.99987 7.54192 6.04892C7.17103 6.10433 6.79 6.23531 6.48543 6.57372C6.19103 6.90083 6.0871 7.29062 6.04205 7.66295C5.99993 8.01097 5.99997 8.44239 6 8.92955L6 9.50001C6 9.91422 6.33579 10.25 6.75 10.25C7.16422 10.25 7.5 9.91422 7.5 9.50001V8.97223C7.5 8.42932 7.5013 8.09012 7.53118 7.84314C7.54521 7.72726 7.56273 7.66049 7.5769 7.62222C7.58886 7.58994 7.5974 7.58047 7.60023 7.57732L7.60104 7.57638C7.60241 7.57474 7.60341 7.57354 7.61242 7.56941C7.62905 7.56181 7.67169 7.54618 7.76354 7.53246C7.96765 7.50197 9.50498 7.50001 9.99987 7.50001H11.2499L11.2501 16.5H10.0001C9.58592 16.5 9.25013 16.8358 9.25013 17.25C9.25013 17.6642 9.58592 18 10.0001 18H14.0001C14.4143 18 14.7501 17.6642 14.7501 17.25C14.7501 16.8358 14.4143 16.5 14.0001 16.5H12.7501L12.7499 7.50001H13.9999C14.4948 7.50001 16.0324 7.54401 16.2365 7.5745C16.3283 7.58822 16.371 7.60386 16.3876 7.61146C16.3966 7.61558 16.3976 7.61678 16.399 7.61843L16.3996 7.61921C16.4025 7.62236 16.4111 7.63198 16.4231 7.66427C16.4373 7.70253 16.4548 7.7693 16.4688 7.88518C16.4987 8.13217 16.5 8.47136 16.5 9.01428V9.54205C16.5 9.95627 16.8358 10.2921 17.25 10.2921C17.6642 10.2921 18 9.95627 18 9.54205L18 8.97158V8.97158C18 8.48443 18.0001 8.05301 17.958 7.70499C17.9129 7.33266 17.809 6.94287 17.5146 6.61577C17.21 6.27735 16.829 6.14637 16.4581 6.09096C16.1298 6.04192 14.4778 5.99994 14.0479 6.00001H9.95184Z" fill="#1D1A24"/>
<defs>
<linearGradient id="paint0_linear_1255_11174" x1="12" y1="0" x2="12" y2="24" gradientUnits="userSpaceOnUse">
<stop stop-color="#ECEDE8"/>
<stop offset="1" stop-color="#C8C9C4"/>
</linearGradient>
<linearGradient id="paint1_linear_1255_11174" x1="2.05778" y1="5.48692" x2="8.93077" y2="25.8817" gradientUnits="userSpaceOnUse">
<stop stop-color="#A917DC"/>
<stop offset="1" stop-color="#CA40FB"/>
</linearGradient>
</defs>
</svg>
