<svg width="416" height="204" viewBox="0 0 416 204" fill="none" xmlns="http://www.w3.org/2000/svg">
<mask id="path-1-inside-1_604_396" fill="white">
<path fill-rule="evenodd" clip-rule="evenodd" d="M416 32C416 14.3269 401.673 0 384 0H32C14.3269 0 0 14.3269 0 32V172C0 189.673 14.3269 204 32 204H143.529C153.194 204 162.341 199.632 168.416 192.115L202.593 149.828C211.706 138.553 225.427 132 239.925 132L384 132C401.673 132 416 117.673 416 100V32Z"/>
</mask>
<path fill-rule="evenodd" clip-rule="evenodd" d="M416 32C416 14.3269 401.673 0 384 0H32C14.3269 0 0 14.3269 0 32V172C0 189.673 14.3269 204 32 204H143.529C153.194 204 162.341 199.632 168.416 192.115L202.593 149.828C211.706 138.553 225.427 132 239.925 132L384 132C401.673 132 416 117.673 416 100V32Z" fill="url(#paint0_radial_604_396)"/>
<path d="M202.593 149.828L201.816 149.199L202.593 149.828ZM239.925 132V131V132ZM168.416 192.115L167.639 191.486L168.416 192.115ZM32 1H384V-1H32V1ZM1 172V32H-1V172H1ZM143.529 203H32V205H143.529V203ZM201.816 149.199L167.639 191.486L169.194 192.743L203.371 150.456L201.816 149.199ZM239.925 131C225.125 131 211.118 137.689 201.816 149.199L203.371 150.456C212.294 139.416 225.729 133 239.925 133V131ZM384 131L239.925 131V133L384 133L384 131ZM415 32V100H417V32H415ZM143.529 205C153.496 205 162.929 200.495 169.194 192.743L167.639 191.486C161.753 198.768 152.892 203 143.529 203V205ZM-1 172C-1 190.225 13.7746 205 32 205V203C14.8791 203 1 189.121 1 172H-1ZM384 133C402.225 133 417 118.225 417 100H415C415 117.121 401.121 131 384 131L384 133ZM384 1C401.121 1 415 14.8792 415 32H417C417 13.7746 402.225 -1 384 -1V1ZM32 -1C13.7746 -1 -1 13.7746 -1 32H1C1 14.8792 14.8792 1 32 1V-1Z" fill="url(#paint1_linear_604_396)" mask="url(#path-1-inside-1_604_396)"/>
<defs>
<radialGradient id="paint0_radial_604_396" cx="0" cy="0" r="1" gradientUnits="userSpaceOnUse" gradientTransform="translate(84.42 27.4856) scale(271.649 152.639)">
<stop stop-color="#1D1A24"/>
<stop offset="0.5" stop-color="#18151F"/>
<stop offset="1" stop-color="#16131D"/>
</radialGradient>
<linearGradient id="paint1_linear_604_396" x1="74.88" y1="38.25" x2="158.04" y2="158.815" gradientUnits="userSpaceOnUse">
<stop stop-color="#322D40" stop-opacity="0.48"/>
<stop offset="0.5" stop-color="#51587C" stop-opacity="0.05"/>
<stop offset="1" stop-opacity="0"/>
</linearGradient>
</defs>
</svg>
