<svg width="189" height="37" viewBox="0 0 189 37" fill="none" xmlns="http://www.w3.org/2000/svg">
<g clip-path="url(#clip0_1312_3553)">
<path fill-rule="evenodd" clip-rule="evenodd" d="M13.6967 16.9367V5.40903H14.6724C15.404 5.40903 16.6242 5.28603 16.6242 8.73773V13.5461C16.6242 16.9982 15.4037 16.9367 14.6724 16.9367H13.6967ZM6.19496 30.7449H4.3656V31.7319H17.6604C20.8932 31.7319 24.2477 30.5593 24.2477 25.2582C24.2477 21.622 22.9667 18.1696 17.9654 17.6761V17.2445C20.4054 17.0604 23.8207 15.8886 23.8207 10.7727C23.8207 4.9778 19.3681 4.36133 17.9052 4.36133H4.36523V5.4094H6.19459L6.19496 30.7449ZM13.6967 30.7449V17.9229H14.6724C15.404 17.9229 16.6242 17.8614 16.6242 21.3134V27.3529C16.6242 30.8053 15.4037 30.7449 14.6724 30.7449H13.6967Z" fill="white"/>
<path fill-rule="evenodd" clip-rule="evenodd" d="M27.3585 5.4094H25.4675V4.36133H42.3001V14.1626H41.6902C40.8959 5.4709 36.6277 5.40903 35.2862 5.40903H34.7983V17.4298H35.1637C37.6034 17.4298 38.5794 14.3482 38.4574 11.5737H39.1281V24.2105H38.4574C38.5794 21.4364 37.6034 18.416 35.1637 18.416H34.7983V30.7449C39.9209 30.8687 41.6898 26.0596 42.1168 21.1904H42.7872V31.7319H25.4668V30.7449H27.3577V5.4094H27.3585Z" fill="white"/>
<path fill-rule="evenodd" clip-rule="evenodd" d="M51.8159 5.4094V30.7453H46.8758C49.0709 27.4785 49.315 22.7312 49.315 15.9508V7.62927C49.315 5.47163 49.9861 5.40976 50.5348 5.40976H51.8159V5.4094ZM46.1438 4.3617V5.40976H47.1195C47.7294 5.40976 48.5834 5.5335 48.5834 7.93713V15.9512C48.5834 27.0473 47.0587 30.7457 44.6806 30.7457H44.3145V36.2309H44.9244C45.0461 32.1642 46.5103 31.7326 49.7424 31.7326H56.2069C59.4397 31.7326 60.9033 32.1642 61.0253 36.2309H61.6352V30.7453H59.3177V5.4094H61.147V4.36133H46.1438V4.3617Z" fill="white"/>
<path fill-rule="evenodd" clip-rule="evenodd" d="M69.2566 7.32021C69.2566 5.59418 69.8056 4.85471 70.7205 4.85471C71.5745 4.85471 72.184 5.59454 72.184 7.32021V28.8966C72.184 30.5596 71.5745 31.3002 70.7205 31.3002C69.8056 31.3002 69.2566 30.5593 69.2566 28.8966V7.32021ZM61.3281 18.1077C61.3281 24.8888 64.4993 32.3461 70.7201 32.3461C76.9401 32.3461 80.0505 24.8888 80.0505 18.1077C80.0505 11.2654 76.9401 3.80664 70.7201 3.80664C64.4993 3.80664 61.3281 11.2654 61.3281 18.1077Z" fill="white"/>
<path fill-rule="evenodd" clip-rule="evenodd" d="M83.3458 7.50553H83.285V27.3533C83.285 30.4375 84.3215 30.7453 85.1752 30.7453H85.6631V31.7323H80.6621V30.7453C81.4546 30.8057 82.553 30.3741 82.553 27.3533V5.4094H80.6621V4.36133H90.0541L92.4322 15.5192H92.5546L94.9938 4.36133H104.386V5.4094H102.556V30.7453H104.386V31.7323H93.225V30.7453H95.0543V7.62927H94.9326L89.6267 31.7323H88.5902L83.3458 7.50553Z" fill="white"/>
<path fill-rule="evenodd" clip-rule="evenodd" d="M113.167 7.32021C113.167 5.59418 113.776 4.85471 114.63 4.85471C115.545 4.85471 116.093 5.59454 116.093 7.32021V28.8966C116.093 30.5596 115.545 31.3002 114.63 31.3002C113.776 31.3002 113.167 30.5593 113.167 28.8966V7.32021ZM105.299 18.1077C105.299 24.8888 108.409 32.3461 114.63 32.3461C120.849 32.3461 124.022 24.8888 124.022 18.1077C124.022 11.2654 120.849 3.80664 114.63 3.80664C108.409 3.80664 105.299 11.2654 105.299 18.1077Z" fill="white"/>
<path fill-rule="evenodd" clip-rule="evenodd" d="M142.256 13.3612H141.586C140.975 8.92326 138.842 5.47082 136.402 5.47082C133.718 5.47082 133.597 9.47786 133.597 11.3888V24.0252C133.597 25.2578 133.657 29.9417 136.706 29.9417C140.121 29.9417 141.464 25.1959 141.952 21.559L142.561 21.7442C142.013 26.3066 140.305 32.3453 135.06 32.3453C128.778 32.3453 125.729 24.5798 125.729 18.0458C125.729 10.2166 129.511 3.80592 135.06 3.80592C136.159 3.80592 137.804 4.17565 139.329 5.59345L141.342 3.18945H141.952L142.256 13.3612Z" fill="white"/>
<path fill-rule="evenodd" clip-rule="evenodd" d="M149.211 5.40903C145.734 5.71726 144.514 11.204 144.271 14.1626H143.66V4.36133H162.262V14.1626H161.59C161.346 11.2043 160.126 5.71726 156.708 5.40903V30.7449H158.906V31.7319H146.951V30.7449H149.208V5.40903H149.208H149.211Z" fill="white"/>
<path fill-rule="evenodd" clip-rule="evenodd" d="M172.875 23.4711H172.996L175.801 7.25843V5.40903H174.887V4.36133H185.132V5.40903H183.303V30.7449H185.132V31.7319H174.887V30.7449H175.801V11.5737H175.681L172.875 27.7241V30.7449H173.79V31.7319H163.541V30.7449H165.374V5.40903H163.541V4.36133H173.79V5.40903H172.875V23.4711Z" fill="white"/>
</g>
<defs>
<clipPath id="clip0_1312_3553">
<rect width="188" height="36" fill="white" transform="translate(0.333984 0.230469)"/>
</clipPath>
</defs>
</svg>
